<svg version="1.2" xmlns="http://www.w3.org/2000/svg" width="16" height="16"><style>.b{fill:#c84c0c}</style><path d="M0 0h16v16H0z" style="fill:#fcbcb0"/><path class="b" d="M4 4h8v8H4zM12 12h1v1h-1zM13 13h1v1h-1zM14 14h1v1h-1zM15 15h1v1h-1z"/><path d="M12 3h4v9h-4z"/><path d="M13 2h3v11h-3z"/><path d="M14 1h2v13h-2z"/><path d="M15 0h1v15h-1zM3 12h9v4H3z"/><path d="M2 13h11v3H2z"/><path d="M1 14h13v2H1z"/><path d="M0 15h15v1H0z"/><path class="b" d="M3 3h1v1H3zM2 2h1v1H2zM1 1h1v1H1zM0 0h1v1H0z"/></svg>