<svg version="1.2" xmlns="http://www.w3.org/2000/svg" width="8" height="8"><style>.s0{fill:#c84c0c}.s1{fill:#000}</style><path id="Shape 1" class="s0" d="M2 0h3v7H2z"/><path id="Shape 2" class="s0" d="M3 1h3v7H3z"/><path id="Shape 3" class="s0" d="M2 2h5v5H2z"/><path id="Shape 4" class="s0" d="M1 3h7v3H1z"/><path id="Shape 5" class="s0" d="M1 1h5v5H1z"/><path id="Shape 6" class="s0" d="M0 2h7v3H0z"/><path id="Shape 7" class="s1" d="M3 0h1v1H3z"/><path id="Shape 8" class="s1" d="M4 1h1v1H4z"/><path id="Shape 9" class="s1" d="M5 2h1v1H5z"/><path id="Shape 10" class="s1" d="M6 3h1v1H6z"/><path id="Shape 11" class="s1" d="M7 4h1v1H7z"/><path id="Shape 12" class="s1" d="M5 6h1v1H5z"/><path id="Shape 13" class="s1" d="M4 5h1v1H4z"/><path id="Shape 14" class="s1" d="M3 4h1v1H3z"/><path id="Shape 15" class="s1" d="M3 2h1v1H3z"/><path id="Shape 16" class="s1" d="M2 3h1v1H2z"/><path id="Shape 17" class="s1" d="M1 2h1v1H1z"/><path id="Shape 18" class="s1" d="M3 6h1v1H3z"/></svg>