<svg version="1.2" xmlns="http://www.w3.org/2000/svg" width="32" height="16"><style>.a{fill:#fc9838}.b{fill:#fff}.c{fill:#d82800}</style><path class="a" d="M4 1h1v6H4zM4 9h1v6H4zM4 7v2z"/><path class="b" d="M4 7h1v2H4z"/><path class="c" d="M12 1h1v2h-1zM13 3h1v10h-1zM12 13h1v2h-1z"/><path class="b" d="M11 13h1v2h-1zM11 1h1v2h-1zM10 3h3v10h-3z"/><path class="a" d="M16 5h8v6h-8z"/><path class="a" d="M17 3h6v10h-6z"/><path class="a" d="M18 2h4v12h-4z"/><path class="a" d="M19 1h2v14h-2z"/><path class="b" d="M19 4h1v1h-1zM18 5h1v6h-1zM19 11h1v1h-1z"/><path class="c" d="M20 4h1v1h-1zM21 5h1v6h-1zM20 11h1v1h-1zM27 3h3v10h-3z"/><path class="c" d="M28 1h1v14h-1z"/><path class="a" d="M27 1h1v2h-1zM26 3h1v4h-1zM26 9h1v4h-1zM27 13h1v2h-1z"/><path class="b" d="M26 7h1v2h-1z"/></svg>