<svg version="1.2" xmlns="http://www.w3.org/2000/svg" width="48" height="19"><style>.a{fill:#00a800}</style><path class="a" d="M21 1h6v18h-6z"/><path class="a" d="M18 2h12v17H18z"/><path class="a" d="M15 3h18v16H15z"/><path class="a" d="M13 5h22v14H13z"/><path class="a" d="M11 7h26v12H11z"/><path class="a" d="M9 9h30v10H9z"/><path class="a" d="M7 11h34v8H7z"/><path class="a" d="M5 13h38v6H5z"/><path class="a" d="M3 15h42v4H3z"/><path class="a" d="M1 17h46v2H1z"/><path d="M47 18h1v1h-1zM46 17h1v1h-1zM45 16h1v1h-1zM44 15h1v1h-1zM43 14h1v1h-1zM42 13h1v1h-1zM41 12h1v1h-1zM40 11h1v1h-1zM39 10h1v1h-1zM38 9h1v1h-1zM37 8h1v1h-1zM36 7h1v1h-1zM35 6h1v1h-1zM34 5h1v1h-1zM28 4h3v4h-3z"/><path d="M29 3h1v6h-1zM25 7h2v4h-2zM33 4h1v1h-1zM32 3h1v1h-1zM30 2h2v1h-2zM27 1h3v1h-3zM21 0h6v1h-6zM18 1h3v1h-3zM16 2h2v1h-2zM15 3h1v1h-1zM14 4h1v1h-1zM13 5h1v1h-1zM12 6h1v1h-1zM11 7h1v1h-1zM10 8h1v1h-1zM9 9h1v1H9zM8 10h1v1H8zM7 11h1v1H7zM6 12h1v1H6zM5 13h1v1H5zM4 14h1v1H4zM3 15h1v1H3zM2 16h1v1H2zM1 17h1v1H1zM0 18h1v1H0z"/></svg>