<svg version="1.2" xmlns="http://www.w3.org/2000/svg" width="32" height="24"><style>.a{fill:#80d010}.b{fill:#00a800}</style><path class="a" d="M11 3h8v18h-8z"/><path class="a" d="M14 1h4v3h-4zM13 2h1v2h-1zM18 2h1v2h-1zM11 19h3v4h-3zM14 20h1v2h-1zM16 19h3v3h-3z"/><path class="a" d="M18 5h5v17h-5z"/><path class="a" d="M18 20h4v3h-4z"/><path class="a" d="M20 11h8v10h-8zM19 4h1v2h-1zM21 4h1v2h-1z"/><path class="a" d="M21 8h3v4h-3zM24 10h1v2h-1zM27 9h1v4h-1zM26 10h1v2h-1zM27 13h4v2h-4zM26 18h5v2h-5z"/><path class="a" d="M27 14h3v2h-3z"/><path class="a" d="M27 15h2v4h-2z"/><path class="a" d="M28 17h2v1h-2zM26 18h3v3h-3z"/><path class="a" d="M25 18h2v4h-2zM21 20h3v2h-3zM30 12h1v2h-1zM27 12h2v2h-2zM8 8h4v13H8z"/><path class="a" d="M9 18h3v4H9zM9 7h3v2H9z"/><path class="a" d="M10 6h2v2h-2zM5 9h4v11H5z"/><path class="a" d="M3 11h3v6H3z"/><path class="a" d="M4 10h2v2H4zM4 16h2v2H4zM1 13h3v2H1z"/><path class="a" d="M2 14h2v2H2z"/><path d="M14 0h4v1h-4zM18 1h1v1h-1zM19 2h1v2h-1zM20 4h1v1h-1zM21 3h1v1h-1zM22 4h1v1h-1zM23 5h1v3h-1zM24 8h1v2h-1zM25 10h1v1h-1zM26 9h1v1h-1zM27 8h1v1h-1zM28 9h1v3h-1zM29 12h1v1h-1zM30 11h1v1h-1zM31 12h1v3h-1zM30 15h1v1h-1zM29 16h1v1h-1zM30 17h1v1h-1zM31 18h1v1h-1zM29 20h2v1h-2zM27 21h2v1h-2zM25 22h2v1h-2zM24 21h1v1h-1zM22 22h2v1h-2zM18 23h4v1h-4zM16 22h2v1h-2zM15 21h1v1h-1zM14 22h1v1h-1zM11 23h3v1h-3zM9 22h2v1H9zM8 21h1v1H8zM5 20h3v1H5zM4 18h1v2H4zM3 17h1v1H3zM2 16h1v1H2zM1 15h1v1H1zM0 13h1v2H0zM1 12h2v1H1zM3 10h1v1H3zM4 9h1v1H4zM5 8h3v1H5zM10 3h1v3h-1zM9 6h1v1H9zM8 7h1v1H8zM11 2h2v1h-2zM13 1h1v1h-1z"/><path class="b" d="M13 6h2v1h-2zM12 7h1v1h-1zM17 5h1v1h-1zM18 6h1v1h-1zM18 19h3v2h-3z"/><path class="b" d="M17 19h5v1h-5zM22 18h1v1h-1zM14 18h4v1h-4z"/><path class="b" d="M14 18h2v2h-2zM16 17h1v2h-1zM17 16h1v1h-1zM12 19h2v2h-2zM10 19h2v1h-2zM7 18h4v1H7z"/><path class="b" d="M9 17h1v2H9zM6 17h1v1H6zM5 16h1v1H5z"/></svg>