
<svg version="1.2" xmlns="http://www.w3.org/2000/svg" width="80" height="35"><style>.a{fill:#00a800}</style><path class="a" d="M37 1h6v37h-6zM43 2h3v34h-3zM46 3h2v34h-2zM48 4h1v36h-1zM49 5h1v34h-1zM50 6h1v31h-1zM51 7h1v29h-1zM52 8h1v30h-1zM53 9h1v28h-1zM54 10h1v28h-1zM55 11h1v26h-1z"/><path class="a" d="M55 12h2v25h-2zM57 13h1v23h-1zM58 14h1v22h-1zM59 15h1v21h-1zM60 16h1v20h-1zM61 17h1v19h-1zM62 18h1v18h-1zM63 19h1v17h-1zM64 20h1v16h-1zM65 21h2v16h-2zM67 23h2v14h-2zM69 25h2v12h-2zM71 27h2v10h-2zM73 29h2v8h-2zM75 31h2v6h-2zM77 33h2v4h-2zM34 2h3v36h-3zM32 3h2v34h-2zM30 4h2v32h-2zM28 6h2v30h-2zM26 8h2v28h-2zM24 10h2v26h-2zM22 12h2v24h-2zM20 14h2v22h-2zM18 16h2v20h-2zM16 18h2v18h-2zM14 20h2v16h-2zM12 22h2v14h-2zM10 24h2v12h-2zM8 26h2v10H8zM6 28h2v8H6zM4 30h2v6H4zM2 32h2v4H2zM0 34h2v2H0z"/><path d="M79 34h1v1h-1zM78 33h1v1h-1zM77 32h1v1h-1zM76 31h1v1h-1zM75 30h1v1h-1zM74 29h1v1h-1zM73 28h1v1h-1zM72 27h1v1h-1zM71 26h1v1h-1zM70 25h1v1h-1zM69 24h1v1h-1zM68 23h1v1h-1zM67 22h1v1h-1zM66 21h1v1h-1zM65 20h1v1h-1zM64 19h1v1h-1zM63 18h1v1h-1zM62 17h1v1h-1zM61 16h1v1h-1zM60 15h1v1h-1zM59 14h1v1h-1zM58 13h1v1h-1zM57 12h1v1h-1zM56 11h1v1h-1zM55 10h1v1h-1zM54 9h1v1h-1zM53 8h1v1h-1zM52 7h1v1h-1zM51 6h1v1h-1zM50 5h1v1h-1zM49 4h1v1h-1zM48 3h1v1h-1zM46 2h2v1h-2zM43 1h3v1h-3zM37 0h6v1h-6zM34 1h3v1h-3zM32 2h2v1h-2zM31 3h1v1h-1zM30 4h1v1h-1zM29 5h1v1h-1zM28 6h1v1h-1zM27 7h1v1h-1zM26 8h1v1h-1zM25 9h1v1h-1zM24 10h1v1h-1zM23 11h1v1h-1zM22 12h1v1h-1zM21 13h1v1h-1zM20 14h1v1h-1zM19 15h1v1h-1zM18 16h1v1h-1zM17 17h1v1h-1zM16 18h1v1h-1zM15 19h1v1h-1zM14 20h1v1h-1zM13 21h1v1h-1zM12 22h1v1h-1zM11 23h1v1h-1zM10 24h1v1h-1zM9 25h1v1H9zM8 26h1v1H8zM7 27h1v1H7zM6 28h1v1H6zM5 29h1v1H5zM4 30h1v1H4zM3 31h1v1H3zM2 32h1v1H2zM1 33h1v1H1zM0 34h1v1H0zM44 4h3v4h-3z"/><path d="M45 3h1v6h-1zM41 7h2v4h-2zM25 23h2v4h-2zM29 19h1v6h-1z"/><path d="M28 20h3v4h-3zM53 19h1v6h-1z"/><path d="M52 20h3v4h-3zM49 23h2v4h-2z"/></svg>