<svg version="1.2" xmlns="http://www.w3.org/2000/svg" viewBox="0 0 64 24" width="64" height="24"><style>.a{fill:#80d010}.b{fill:#00a800}</style><path class="a" d="m11 3h8v18h-8z"/><path class="a" d="m14 1h4v3h-4zm-1 1h1v2h-1zm5 0h1v2h-1zm-7 17h3v4h-3zm3 1h1v2h-1zm2-1h3v3h-3z"/><path class="a" d="m18 5h5v17h-5z"/><path class="a" d="m18 20h4v3h-4z"/><path class="a" d="m20 11h8v10h-8zm-1-7h1v2h-1zm2 0h1v2h-1z"/><path class="a" d="m21 8h3v4h-3zm3 2h1v2h-1zm3-1h1v4h-1zm-1 1h1v2h-1zm1 3h4v2h-4zm-1 5h5v2h-5z"/><path class="a" d="m27 14h3v2h-3z"/><path class="a" d="m27 15h2v4h-2z"/><path class="a" d="m28 17h2v1h-2zm-2 1h3v3h-3z"/><path class="a" d="m25 18h2v4h-2zm-4 2h3v2h-3zm9-8h1v2h-1zm-3 0h2v2h-2zm-19-4h4v13h-4z"/><path class="a" d="m9 18h3v4h-3zm0-11h3v2h-3z"/><path class="a" d="m10 6h2v2h-2zm-5 3h4v11h-4z"/><path class="a" d="m3 11h3v6h-3z"/><path class="a" d="m4 10h2v2h-2zm0 6h2v2h-2zm-3-3h3v2h-3z"/><path class="a" d="m2 14h2v2h-2z"/><path  d="m14 0h4v1h-4zm4 1h1v1h-1zm1 1h1v2h-1zm1 2h1v1h-1zm1-1h1v1h-1zm1 1h1v1h-1zm1 1h1v3h-1zm1 3h1v2h-1zm1 2h1v1h-1zm1-1h1v1h-1zm1-1h1v1h-1zm1 1h1v3h-1zm1 3h1v1h-1zm1-1h1v1h-1zm1 1h1v3h-1zm-1 3h1v1h-1zm-1 1h1v1h-1zm1 1h1v1h-1zm1 1h1v1h-1zm-2 2h2v1h-2zm-2 1h2v1h-2zm-2 1h2v1h-2zm-1-1h1v1h-1zm-2 1h2v1h-2zm-4 1h4v1h-4zm-2-1h2v1h-2zm-1-1h1v1h-1zm-1 1h1v1h-1zm-3 1h3v1h-3zm-2-1h2v1h-2zm-1-1h1v1h-1zm-3-1h3v1h-3zm-1-2h1v2h-1zm-1-1h1v1h-1zm-1-1h1v1h-1zm-1-1h1v1h-1zm-1-2h1v2h-1zm1-1h2v1h-2zm2-2h1v1h-1zm1-1h1v1h-1zm1-1h3v1h-3zm5-5h1v3h-1zm-1 3h1v1h-1zm-1 1h1v1h-1zm3-5h2v1h-2zm2-1h1v1h-1z"/><path class="b" d="m13 6h2v1h-2zm-1 1h1v1h-1zm5-2h1v1h-1zm1 1h1v1h-1zm0 13h3v2h-3z"/><path class="b" d="m17 19h5v1h-5zm5-1h1v1h-1zm-8 0h4v1h-4z"/><path class="b" d="m14 18h2v2h-2zm2-1h1v2h-1zm1-1h1v1h-1zm-5 3h2v2h-2zm-2 0h2v1h-2zm-3-1h4v1h-4z"/><path class="b" d="m9 17h1v2h-1zm-3 0h1v1h-1zm-1-1h1v1h-1z"/><path class="a" d="m27 3h8v18h-8z"/><path class="a" d="m30 1h4v3h-4zm-1 1h1v2h-1zm5 0h1v2h-1zm-7 17h3v4h-3zm3 1h1v2h-1zm2-1h3v3h-3z"/><path class="a" d="m34 5h5v17h-5z"/><path class="a" d="m34 20h4v3h-4z"/><path class="a" d="m36 11h8v10h-8zm-1-7h1v2h-1zm2 0h1v2h-1z"/><path class="a" d="m37 8h3v4h-3zm3 2h1v2h-1zm3-1h1v4h-1zm-1 1h1v2h-1zm1 3h4v2h-4zm-1 5h5v2h-5z"/><path class="a" d="m43 14h3v2h-3z"/><path class="a" d="m43 15h2v4h-2z"/><path class="a" d="m44 17h2v1h-2zm-2 1h3v3h-3z"/><path class="a" d="m41 18h2v4h-2zm-4 2h3v2h-3zm9-8h1v2h-1zm-3 0h2v2h-2zm-19-4h4v13h-4z"/><path class="a" d="m25 18h3v4h-3zm0-11h3v2h-3z"/><path class="a" d="m26 6h2v2h-2zm-5 3h4v11h-4z"/><path class="a" d="m19 11h3v6h-3z"/><path class="a" d="m20 10h2v2h-2zm0 6h2v2h-2zm-3-3h3v2h-3z"/><path class="a" d="m18 14h2v2h-2z"/><path  d="m30 0h4v1h-4zm4 1h1v1h-1zm1 1h1v2h-1zm1 2h1v1h-1zm1-1h1v1h-1zm1 1h1v1h-1zm1 1h1v3h-1zm1 3h1v2h-1zm1 2h1v1h-1zm1-1h1v1h-1zm1-1h1v1h-1zm1 1h1v3h-1zm1 3h1v1h-1zm1-1h1v1h-1zm1 1h1v3h-1zm-1 3h1v1h-1zm-1 1h1v1h-1zm1 1h1v1h-1zm1 1h1v1h-1zm-2 2h2v1h-2zm-2 1h2v1h-2zm-2 1h2v1h-2zm-1-1h1v1h-1zm-2 1h2v1h-2zm-4 1h4v1h-4zm-2-1h2v1h-2zm-1-1h1v1h-1zm-1 1h1v1h-1zm-3 1h3v1h-3zm-2-1h2v1h-2zm-1-1h1v1h-1zm-3-1h3v1h-3zm-1-2h1v2h-1zm-1-1h1v1h-1zm-1-1h1v1h-1zm-1-1h1v1h-1zm-1-2h1v2h-1zm1-1h2v1h-2zm2-2h1v1h-1zm1-1h1v1h-1zm1-1h3v1h-3zm5-5h1v3h-1zm-1 3h1v1h-1zm-1 1h1v1h-1zm3-5h2v1h-2zm2-1h1v1h-1z"/><path class="b" d="m29 6h2v1h-2zm-1 1h1v1h-1zm5-2h1v1h-1zm1 1h1v1h-1zm0 13h3v2h-3z"/><path class="b" d="m33 19h5v1h-5zm5-1h1v1h-1zm-8 0h4v1h-4z"/><path class="b" d="m30 18h2v2h-2zm2-1h1v2h-1zm1-1h1v1h-1zm-5 3h2v2h-2zm-2 0h2v1h-2zm-3-1h4v1h-4z"/><path class="b" d="m25 17h1v2h-1zm-3 0h1v1h-1zm-1-1h1v1h-1z"/><path class="a" d="m14 8h10v8h-10zm4 8h3v3h-3zm2 3h4v2h-4z"/><path class="b" d="m18 19h3v2h-3z"/><path class="b" d="m20 19h2v1h-2zm2-1h1v1h-1z"/><path class="a" d="m20 15h3v3h-3zm3 2h1v3h-1z"/><path class="b" d="m25 17h1v2h-1zm-3 0h1v1h-1zm-1-1h1v1h-1z"/><path class="a" d="m43 3h8v18h-8z"/><path class="a" d="m46 1h4v3h-4zm-1 1h1v2h-1zm5 0h1v2h-1zm-7 17h3v4h-3zm3 1h1v2h-1zm2-1h3v3h-3z"/><path class="a" d="m50 5h5v17h-5z"/><path class="a" d="m50 20h4v3h-4z"/><path class="a" d="m52 11h8v10h-8zm-1-7h1v2h-1zm2 0h1v2h-1z"/><path class="a" d="m53 8h3v4h-3zm3 2h1v2h-1zm3-1h1v4h-1zm-1 1h1v2h-1zm1 3h4v2h-4zm-1 5h5v2h-5z"/><path class="a" d="m59 14h3v2h-3z"/><path class="a" d="m59 15h2v4h-2z"/><path class="a" d="m60 17h2v1h-2zm-2 1h3v3h-3z"/><path class="a" d="m57 18h2v4h-2zm-4 2h3v2h-3zm9-8h1v2h-1zm-3 0h2v2h-2zm-19-4h4v13h-4z"/><path class="a" d="m41 18h3v4h-3zm0-11h3v2h-3z"/><path class="a" d="m42 6h2v2h-2zm-5 3h4v11h-4z"/><path class="a" d="m35 11h3v6h-3z"/><path class="a" d="m36 10h2v2h-2zm0 6h2v2h-2zm-3-3h3v2h-3z"/><path class="a" d="m34 14h2v2h-2z"/><path  d="m46 0h4v1h-4zm4 1h1v1h-1zm1 1h1v2h-1zm1 2h1v1h-1zm1-1h1v1h-1zm1 1h1v1h-1zm1 1h1v3h-1zm1 3h1v2h-1zm1 2h1v1h-1zm1-1h1v1h-1zm1-1h1v1h-1zm1 1h1v3h-1zm1 3h1v1h-1zm1-1h1v1h-1zm1 1h1v3h-1zm-1 3h1v1h-1zm-1 1h1v1h-1zm1 1h1v1h-1zm1 1h1v1h-1zm-2 2h2v1h-2zm-2 1h2v1h-2zm-2 1h2v1h-2zm-1-1h1v1h-1zm-2 1h2v1h-2zm-4 1h4v1h-4zm-2-1h2v1h-2zm-1-1h1v1h-1zm-1 1h1v1h-1zm-3 1h3v1h-3zm-2-1h2v1h-2zm-1-1h1v1h-1zm-3-1h3v1h-3zm-1-2h1v2h-1zm-1-1h1v1h-1zm-1-1h1v1h-1zm-1-1h1v1h-1zm-1-2h1v2h-1zm1-1h2v1h-2zm2-2h1v1h-1zm1-1h1v1h-1zm1-1h3v1h-3zm5-5h1v3h-1zm-1 3h1v1h-1zm-1 1h1v1h-1zm3-5h2v1h-2zm2-1h1v1h-1z"/><path class="b" d="m45 6h2v1h-2zm-1 1h1v1h-1zm5-2h1v1h-1zm1 1h1v1h-1zm0 13h3v2h-3z"/><path class="b" d="m49 19h5v1h-5zm5-1h1v1h-1zm-8 0h4v1h-4z"/><path class="b" d="m46 18h2v2h-2zm2-1h1v2h-1zm1-1h1v1h-1zm-5 3h2v2h-2zm-2 0h2v1h-2zm-3-1h4v1h-4z"/><path class="b" d="m41 17h1v2h-1zm-3 0h1v1h-1zm-1-1h1v1h-1z"/><path class="a" d="m30 8h10v8h-10zm4 8h3v3h-3zm2 3h4v2h-4z"/><path class="b" d="m34 19h3v2h-3z"/><path class="b" d="m36 19h2v1h-2zm2-1h1v1h-1z"/><path class="a" d="m36 15h3v3h-3zm3 2h1v3h-1z"/><path class="a" d="m19 6h4v5h-4z"/><path class="a" d="m19 8h7v4h-7z"/><path class="a" d="m35 6h4v5h-4z"/><path class="a" d="m35 8h6v5h-6z"/></svg>