<svg version="1.2" xmlns="http://www.w3.org/2000/svg" width="80" height="80"><style>.a{fill:#c84c0c}.b{fill:#fcbcb0}</style><path class="a" d="M0 40h80v40H0z"/><path class="a" d="M16 8h48v34H16z"/><path d="M16 31h48v1H16zM16 27h48v1H16zM16 23h48v1H16zM16 19h48v1H16zM16 15h48v1H16zM16 11h48v1H16z"/><path class="a" d="M12 33h7v7h-7zM0 33h3v7H0zM60 33h7v7h-7zM76 33h4v7h-4zM44 1h7v7h-7zM60 1h4v7h-4zM28 1h7v7h-7zM16 1h3v7h-3z"/><path d="M32 54h16v26H32z"/><path d="M33 51h14v16H33z"/><path d="M35 49h10v7H35z"/><path d="M34 50h12v3H34z"/><path d="M37 47h6v15h-6zM0 79h80v1H0zM0 75h80v1H0zM-1 71h81v1H-1z"/><path d="M79 71h1v5h-1zM75 75h1v5h-1zM71 71h1v5h-1zM67 75h1v5h-1zM63 71h1v5h-1zM59 75h1v5h-1zM55 71h1v5h-1zM51 75h1v5h-1zM31 71h1v5h-1zM23 71h1v5h-1zM27 75h1v5h-1zM19 75h1v5h-1zM15 71h1v5h-1zM7 71h1v5H7zM11 75h1v5h-1zM3 75h1v5H3z"/><path d="M0 71h80v1H0zM0 67h80v1H0zM-1 63h81v1H-1z"/><path d="M79 63h1v5h-1zM75 67h1v5h-1zM71 63h1v5h-1zM67 67h1v5h-1zM63 63h1v5h-1zM59 67h1v5h-1zM55 63h1v5h-1zM51 67h1v5h-1zM31 63h1v5h-1zM23 63h1v5h-1zM27 67h1v5h-1zM19 67h1v5h-1zM15 63h1v5h-1zM7 63h1v5H7zM11 67h1v5h-1zM3 67h1v5H3z"/><path d="M0 63h80v1H0zM0 59h80v1H0zM-1 55h81v1H-1z"/><path d="M79 55h1v5h-1zM75 59h1v5h-1zM71 55h1v5h-1zM67 59h1v5h-1zM63 55h1v5h-1zM59 59h1v5h-1zM55 55h1v5h-1zM51 59h1v5h-1zM31 55h1v5h-1zM23 55h1v5h-1zM27 59h1v5h-1zM19 59h1v5h-1zM15 55h1v5h-1zM7 55h1v5H7zM11 59h1v5h-1zM3 59h1v5H3z"/><path d="M0 55h80v1H0zM0 51h80v1H0zM-1 47h81v1H-1z"/><path d="M79 47h1v5h-1zM75 51h1v5h-1zM71 47h1v5h-1zM67 51h1v5h-1zM63 47h1v5h-1zM59 51h1v5h-1zM55 47h1v5h-1zM51 51h1v5h-1zM31 47h1v5h-1zM23 47h1v5h-1zM27 51h1v5h-1zM19 51h1v5h-1zM15 47h1v5h-1zM7 47h1v5H7zM11 51h1v5h-1zM3 51h1v5H3z"/><path d="M0 47h80v1H0zM0 43h80v1H0z"/><path d="M43 43h1v5h-1zM35 43h1v5h-1zM39 39h1v4h-1zM44 39h7v1h-7z"/><path d="M47 39h1v5h-1zM76 39h4v1h-4zM60 39h7v1h-7zM28 39h7v1h-7zM12 39h7v1h-7zM0 39h3v1H0z"/><path d="M79 39h1v5h-1zM75 43h1v5h-1zM71 39h1v5h-1zM67 43h1v5h-1zM63 39h1v5h-1zM59 43h1v5h-1zM55 39h1v5h-1zM51 43h1v5h-1zM31 39h1v5h-1zM23 39h1v5h-1zM27 43h1v5h-1zM19 43h1v5h-1zM15 39h1v5h-1zM7 39h1v5H7zM11 43h1v5h-1zM3 43h1v5H3z"/><path class="b" d="M75 32h5v1h-5z"/><path class="b" d="M75 32h1v8h-1zM67 39h8v1h-8z"/><path class="b" d="M67 32h1v8h-1z"/><path class="b" d="M59 32h9v1h-9z"/><path class="b" d="M59 32h1v8h-1z"/><path class="b" d="M51 39h9v1h-9z"/><path class="b" d="M51 32h1v8h-1z"/><path class="b" d="M43 32h9v1h-9z"/><path class="b" d="M43 32h1v8h-1z"/><path class="b" d="M35 39h9v1h-9z"/><path class="b" d="M35 32h1v8h-1z"/><path class="b" d="M27 32h9v1h-9z"/><path class="b" d="M27 32h1v8h-1z"/><path class="b" d="M19 39h9v1h-9z"/><path class="b" d="M19 32h1v8h-1z"/><path class="b" d="M11 32h9v1h-9z"/><path class="b" d="M11 32h1v8h-1z"/><path class="b" d="M3 39h9v1H3zM0 32h4v1H0z"/><path class="b" d="M3 32h1v8H3z"/><path d="M16 7h3v1h-3zM28 7h7v1h-7zM44 7h7v1h-7zM60 7h4v1h-4z"/><path d="M63 7h1v5h-1zM63 15h1v5h-1zM63 23h1v5h-1zM59 27h1v5h-1zM59 19h1v5h-1zM59 11h1v5h-1zM55 8h1v4h-1zM47 7h1v5h-1zM51 11h1v5h-1z"/><path d="M48 15h8v16h-8z"/><path d="M47 15h2v5h-2zM47 23h2v5h-2zM55 31h1v5h-1zM23 31h1v5h-1zM39 31h1v5h-1zM19 27h1v5h-1zM24 15h8v17h-8z"/><path d="M23 15h2v4h-2zM23 23h2v5h-2zM19 19h1v5h-1zM19 11h1v5h-1zM23 8h1v4h-1zM31 7h1v5h-1zM27 11h1v5h-1zM35 11h1v5h-1zM39 8h1v4h-1zM43 11h1v5h-1zM39 15h1v5h-1zM43 19h1v5h-1zM35 19h1v5h-1zM39 23h1v5h-1zM43 27h1v5h-1zM35 27h1v5h-1zM20 35h7v1h-7zM36 35h7v1h-7zM52 35h7v1h-7zM47 47h1v5h-1z"/><path class="b" d="M59 0h5v1h-5z"/><path class="b" d="M59 0h1v8h-1z"/><path class="b" d="M51 7h9v1h-9z"/><path class="b" d="M51 0h1v8h-1z"/><path class="b" d="M43 0h9v1h-9z"/><path class="b" d="M43 0h1v8h-1z"/><path class="b" d="M35 7h9v1h-9z"/><path class="b" d="M35 0h1v8h-1z"/><path class="b" d="M27 0h9v1h-9z"/><path class="b" d="M27 0h1v8h-1z"/><path class="b" d="M19 7h9v1h-9z"/><path class="b" d="M19 0h1v8h-1z"/><path class="b" d="M16 0h4v1h-4z"/></svg>