<svg version="1.2" xmlns="http://www.w3.org/2000/svg" width="157" height="32"><style>.s0{fill:#fc9838}.s1{fill:#887000}.s2{fill:#d82800}</style><g id="Folder 1"><path id="Shape 1" class="s0" d="M11 16h5v1h-5z"/><path id="Shape 2" class="s0" d="M11 15h4v5h-4z"/><path id="Shape 3" class="s0" d="M4 14h9v7H4z"/><path id="Shape 4" class="s0" d="M12 28h2v2h-2z"/><path id="Shape 5" class="s0" d="M10 26h5v3h-5z"/><path id="Shape 6" class="s0" d="M2 28h2v2H2z"/><path id="Shape 7" class="s0" d="M1 26h5v3H1z"/><path id="Shape 8" class="s0" d="M10 11h2v2h-2z"/><path id="Shape 9" class="s1" d="M1 19h3v3H1z"/><path id="Shape 10" class="s1" d="M13 20h2v2h-2z"/><path id="Shape 11" class="s1" d="M14 26h1v2h-1z"/><path id="Shape 12" class="s1" d="M13 22h3v5h-3z"/><path id="Shape 13" class="s1" d="M1 26h1v2H1z"/><path id="Shape 14" class="s1" d="M0 25h3v2H0z"/><path id="Shape 15" class="s1" d="M0 21h15v5H0z"/><path id="Shape 16" class="s1" d="M3 15h1v2H3z"/><path id="Shape 17" class="s1" d="M2 16h2v2H2z"/><path id="Shape 18" class="s1" d="M6 14h1v2H6z"/><path id="Shape 19" class="s1" d="M4 14h3v1H4z"/><path id="Shape 20" class="s1" d="M7 16h1v1H7z"/><path id="Shape 21" class="s1" d="M9 15h2v1H9z"/><path id="Shape 22" class="s1" d="M9 14h1v2H9z"/><path id="Shape 23" class="s1" d="M11 16h1v2h-1z"/><path id="Shape 24" class="s1" d="M9 17h3v1H9z"/><path id="Shape 25" class="s1" d="M10 17h5v2h-5z"/><path id="Shape 26" class="s1" d="M11 20h2v2h-2z"/><path id="Shape 27" class="s1" d="M5 19h1v4H5z"/><path id="Shape 28" class="s1" d="M5 20h3v3H5z"/><path id="Shape 29" class="s1" d="M4 18h1v1H4z"/><path id="Shape 30" class="s2" d="M4 13h11v1H4z"/><path id="Shape 31" class="s2" d="M9 10h2v2H9z"/><path id="Shape 32" class="s2" d="M7 10h5v1H7z"/><path id="Shape 33" class="s2" d="M4 12h2v2H4z"/><path id="Shape 34" class="s2" d="M7 10h3v2H7z"/><path id="Shape 35" class="s2" d="M5 11h5v3H5z"/><path id="Shape 36" class="s2" d="M4 19h1v6H4z"/><path id="Shape 37" class="s2" d="M4 24h2v1H4z"/><path id="Shape 38" class="s2" d="M13 20h1v3h-1z"/><path id="Shape 39" class="s2" d="M12 22h2v1h-2z"/><path id="Shape 40" class="s2" d="M12 22h1v2h-1z"/><path id="Shape 41" class="s2" d="M11 23h2v1h-2z"/><path id="Shape 42" class="s2" d="M11 23h1v2h-1z"/><path id="Shape 43" class="s2" d="M10 24h2v1h-2z"/><path id="Shape 44" class="s2" d="M5 24h6v2H5z"/><path id="Shape 45" class="s2" d="M5 28h6v1H5z"/><path id="Shape 46" class="s2" d="M6 24h4v5H6z"/><path id="Shape 47" class="s2" d="M14 29h1v1h-1z"/><path id="Shape 48" class="s2" d="M15 27h1v2h-1z"/><path id="Shape 49" class="s2" d="M1 29h1v1H1z"/><path id="Shape 50" class="s2" d="M0 27h1v2H0z"/><path id="Shape 51" class="s0" d="M5 23h1v1H5z"/><path id="Shape 52" class="s1" d="M4 29h1v3H4z"/><path id="Shape 53" class="s1" d="M0 31h6v1H0z"/><path id="Shape 54" class="s1" d="M2 30h4v2H2z"/><path id="Shape 55" class="s1" d="M11 29h1v3h-1z"/><path id="Shape 56" class="s1" d="M10 31h6v1h-6z"/><path id="Shape 57" class="s1" d="M10 30h4v2h-4z"/><path id="Shape 58" class="s2" d="M2 18h2v1H2z"/></g><g id="Folder 2"><path id="Shape 59" class="s0" d="M33 1h2v2h-2z"/><path id="Shape 60" class="s0" d="M34 6h5v2h-5z"/><path id="Shape 61" class="s0" d="M35 5h3v5h-3z"/><path id="Shape 62" class="s0" d="M34 6h3v5h-3z"/><path id="Shape 63" class="s0" d="M29 9h5v3h-5z"/><path id="Shape 64" class="s0" d="M27 4h9v7h-9z"/><path id="Shape 65" class="s0" d="M37 20h2v4h-2z"/><path id="Shape 66" class="s0" d="M36 20h3v3h-3z"/><path id="Shape 67" class="s0" d="M36 20h4v2h-4z"/><path id="Shape 68" class="s0" d="M25 20h2v4h-2z"/><path id="Shape 69" class="s0" d="M25 20h3v3h-3z"/><path id="Shape 70" class="s0" d="M24 20h4v2h-4z"/><path id="Shape 71" class="s1" d="M34 7h1v3h-1z"/><path id="Shape 72" class="s1" d="M32 8h6v1h-6z"/><path id="Shape 73" class="s1" d="M33 8h5v2h-5z"/><path id="Shape 74" class="s1" d="M32 4h1v2h-1z"/><path id="Shape 75" class="s1" d="M32 5h2v1h-2z"/><path id="Shape 76" class="s1" d="M27 4h3v1h-3z"/><path id="Shape 77" class="s1" d="M29 4h1v4h-1z"/><path id="Shape 78" class="s1" d="M29 6h2v2h-2z"/><path id="Shape 79" class="s1" d="M26 9h2v1h-2z"/><path id="Shape 80" class="s1" d="M26 5h1v5h-1z"/><path id="Shape 81" class="s1" d="M27 9h1v2h-1z"/><path id="Shape 82" class="s1" d="M27 10h2v1h-2z"/><path id="Shape 83" class="s1" d="M25 7h2v3h-2z"/><path id="Shape 84" class="s1" d="M24 17h16v3H24z"/><path id="Shape 85" class="s1" d="M25 15h14v5H25z"/><path id="Shape 86" class="s1" d="M26 14h12v6H26z"/><path id="Shape 87" class="s1" d="M27 13h10v7H27z"/><path id="Shape 88" class="s1" d="M28 12h8v8h-8z"/><path id="Shape 89" class="s1" d="M28 11h7v9h-7z"/><path id="Shape 90" class="s1" d="M24 30h6v2h-6z"/><path id="Shape 91" class="s1" d="M26 28h4v4h-4z"/><path id="Shape 92" class="s1" d="M34 30h6v2h-6z"/><path id="Shape 93" class="s1" d="M34 28h4v4h-4z"/><path id="Shape 94" class="s0" d="M29 10h5v2h-5z"/><path id="Shape 95" class="s2" d="M28 11h1v1h-1z"/><path id="Shape 96" class="s2" d="M29 12h1v7h-1z"/><path id="Shape 97" class="s2" d="M28 16h1v4h-1z"/><path id="Shape 98" class="s2" d="M28 16h2v3h-2z"/><path id="Shape 99" class="s2" d="M34 12h1v7h-1z"/><path id="Shape 100" class="s2" d="M35 16h1v4h-1z"/><path id="Shape 101" class="s2" d="M34 16h2v3h-2z"/><path id="Shape 102" class="s2" d="M25 25h5v3h-5z"/><path id="Shape 103" class="s2" d="M26 24h12v1H26z"/><path id="Shape 104" class="s2" d="M27 23h4v3h-4z"/><path id="Shape 105" class="s2" d="M34 25h5v3h-5z"/><path id="Shape 106" class="s2" d="M33 23h4v3h-4z"/><path id="Shape 107" class="s2" d="M28 18h8v6h-8z"/><path id="Shape 108" class="s0" d="M29 19h1v1h-1z"/><path id="Shape 109" class="s0" d="M34 19h1v1h-1z"/><path id="Shape 110" class="s2" d="M27 3h11v1H27z"/><path id="Shape 111" class="s2" d="M30 0h5v1h-5z"/><path id="Shape 112" class="s2" d="M27 2h2v2h-2z"/><path id="Shape 113" class="s2" d="M30 0h4v2h-4z"/><path id="Shape 114" class="s2" d="M28 1h5v3h-5z"/></g><g id="Folder 3"><path id="Shape 115" class="s0" d="M61 3h2v6h-2z"/><path id="Shape 116" class="s0" d="M60 4h4v5h-4z"/><path id="Shape 117" class="s0" d="M52 1h1v2h-1z"/><path id="Shape 118" class="s0" d="M51 1h2v1h-2z"/><path id="Shape 119" class="s0" d="M50 6h1v5h-1z"/><path id="Shape 120" class="s0" d="M48 7h4v2h-4z"/><path id="Shape 121" class="s0" d="M49 6h3v4h-3z"/><path id="Shape 122" class="s0" d="M51 3h8v8h-8z"/><path id="Shape 123" class="s0" d="M55 11h5v6h-5z"/><path id="Shape 124" class="s0" d="M57 22h4v2h-4z"/><path id="Shape 125" class="s0" d="M54 22h6v3h-6z"/><path id="Shape 126" class="s1" d="M61 2h2v1h-2z"/><path id="Shape 127" class="s1" d="M60 1h2v2h-2z"/><path id="Shape 128" class="s1" d="M59 1h1v5h-1z"/><path id="Shape 129" class="s1" d="M59 1h2v3h-2z"/><path id="Shape 130" class="s1" d="M61 6h1v1h-1z"/><path id="Shape 131" class="s1" d="M60 7h1v1h-1z"/><path id="Shape 132" class="s1" d="M61 8h1v1h-1z"/><path id="Shape 133" class="s1" d="M62 7h1v1h-1z"/><path id="Shape 134" class="s1" d="M55 10h1v2h-1z"/><path id="Shape 135" class="s1" d="M55 10h5v1h-5z"/><path id="Shape 136" class="s1" d="M59 10h1v2h-1z"/><path id="Shape 137" class="s1" d="M59 11h2v1h-2z"/><path id="Shape 138" class="s1" d="M60 11h1v3h-1z"/><path id="Shape 139" class="s1" d="M57 8h3v3h-3z"/><path id="Shape 140" class="s1" d="M56 3h1v3h-1z"/><path id="Shape 141" class="s1" d="M55 6h1v1h-1z"/><path id="Shape 142" class="s1" d="M53 4h1v2h-1z"/><path id="Shape 143" class="s1" d="M52 5h2v1h-2z"/><path id="Shape 144" class="s1" d="M51 8h4v1h-4z"/><path id="Shape 145" class="s1" d="M52 7h1v3h-1z"/><path id="Shape 146" class="s1" d="M49 9h4v1h-4z"/><path id="Shape 147" class="s1" d="M51 8h2v2h-2z"/><path id="Shape 148" class="s1" d="M54 11h2v1h-2z"/><path id="Shape 149" class="s1" d="M48 14h2v5h-2z"/><path id="Shape 150" class="s1" d="M54 16h2v1h-2z"/><path id="Shape 151" class="s1" d="M57 15h1v1h-1z"/><path id="Shape 152" class="s1" d="M49 11h6v9h-6z"/><path id="Shape 153" class="s1" d="M61 21h1v3h-1z"/><path id="Shape 154" class="s1" d="M54 21h8v1h-8z"/><path id="Shape 155" class="s1" d="M53 22h1v3h-1z"/><path id="Shape 156" class="s1" d="M53 22h2v2h-2z"/><path id="Shape 157" class="s1" d="M57 19h3v1h-3z"/><path id="Shape 158" class="s1" d="M57 19h2v3h-2z"/><path id="Shape 159" class="s1" d="M54 20h5v2h-5z"/><path id="Shape 160" class="s1" d="M54 20h3v3h-3z"/><path id="Shape 161" class="s1" d="M63 25h1v3h-1z"/><path id="Shape 162" class="s1" d="M62 26h2v2h-2z"/><path id="Shape 163" class="s1" d="M59 26h1v6h-1z"/><path id="Shape 164" class="s1" d="M56 28h6v2h-6z"/><path id="Shape 165" class="s1" d="M57 27h6v2h-6z"/><path id="Shape 166" class="s1" d="M57 27h4v4h-4z"/><path id="Shape 167" class="s1" d="M57 27h3v5h-3z"/><path id="Shape 168" class="s2" d="M58 7h2v1h-2z"/><path id="Shape 169" class="s2" d="M59 6h1v3h-1z"/><path id="Shape 170" class="s2" d="M59 8h2v1h-2z"/><path id="Shape 171" class="s2" d="M60 8h1v3h-1z"/><path id="Shape 172" class="s2" d="M60 10h2v1h-2z"/><path id="Shape 173" class="s2" d="M61 10h1v4h-1z"/><path id="Shape 174" class="s2" d="M58 16h2v1h-2z"/><path id="Shape 175" class="s2" d="M58 16h3v3h-3z"/><path id="Shape 176" class="s2" d="M59 15h3v3h-3z"/><path id="Shape 177" class="s2" d="M52 19h5v1h-5z"/><path id="Shape 178" class="s2" d="M54 18h3v2h-3z"/><path id="Shape 179" class="s2" d="M55 17h6v2h-6z"/><path id="Shape 180" class="s2" d="M52 11h1v3h-1z"/><path id="Shape 181" class="s2" d="M51 11h3v1h-3z"/><path id="Shape 182" class="s2" d="M52 12h3v1h-3z"/><path id="Shape 183" class="s2" d="M52 11h2v2h-2z"/><path id="Shape 184" class="s2" d="M49 4h2v1h-2z"/><path id="Shape 185" class="s2" d="M50 3h1v2h-1z"/><path id="Shape 186" class="s2" d="M50 3h6v1h-6z"/><path id="Shape 187" class="s2" d="M51 0h7v1h-7z"/><path id="Shape 188" class="s2" d="M57 0h1v3h-1z"/><path id="Shape 189" class="s2" d="M55 0h3v3h-3z"/><path id="Shape 190" class="s2" d="M53 0h3v4h-3z"/><path id="Shape 191" class="s2" d="M53 1h7v2h-7z"/><path id="Shape 192" class="s2" d="M52 19h1v5h-1z"/><path id="Shape 193" class="s2" d="M50 20h3v3h-3z"/><path id="Shape 194" class="s2" d="M49 20h5v2h-5z"/><path id="Shape 195" class="s2" d="M54 25h7v1h-7z"/><path id="Shape 196" class="s2" d="M55 25h2v3h-2z"/><path id="Shape 197" class="s2" d="M56 24h4v1h-4z"/><path id="Shape 198" class="s2" d="M56 24h3v3h-3z"/></g><g id="Folder 4"><path id="Shape 199" class="s0" d="M79 2h2v2h-2z"/><path id="Shape 200" class="s0" d="M73 7h12v2H73z"/><path id="Shape 201" class="s0" d="M81 6h3v5h-3z"/><path id="Shape 202" class="s0" d="M79 8h4v4h-4z"/><path id="Shape 203" class="s0" d="M74 10h6v3h-6z"/><path id="Shape 204" class="s0" d="M73 5h9v7h-9z"/><path id="Shape 205" class="s0" d="M78 17h4v5h-4z"/><path id="Shape 206" class="s1" d="M80 8h1v3h-1z"/><path id="Shape 207" class="s1" d="M78 9h6v1h-6z"/><path id="Shape 208" class="s1" d="M79 9h5v2h-5z"/><path id="Shape 209" class="s1" d="M78 5h1v2h-1z"/><path id="Shape 210" class="s1" d="M78 6h2v1h-2z"/><path id="Shape 211" class="s1" d="M73 5h3v1h-3z"/><path id="Shape 212" class="s1" d="M75 5h1v4h-1z"/><path id="Shape 213" class="s1" d="M75 7h2v2h-2z"/><path id="Shape 214" class="s1" d="M73 11h2v1h-2z"/><path id="Shape 215" class="s1" d="M73 10h1v2h-1z"/><path id="Shape 216" class="s1" d="M72 10h2v1h-2z"/><path id="Shape 217" class="s1" d="M72 6h1v5h-1z"/><path id="Shape 218" class="s1" d="M71 8h2v2h-2z"/><path id="Shape 219" class="s1" d="M81 15h1v3h-1z"/><path id="Shape 220" class="s1" d="M78 13h1v5h-1z"/><path id="Shape 221" class="s1" d="M80 15h2v1h-2z"/><path id="Shape 222" class="s1" d="M73 13h8v4h-8z"/><path id="Shape 223" class="s1" d="M72 14h6v9h-6z"/><path id="Shape 224" class="s1" d="M81 22h1v4h-1z"/><path id="Shape 225" class="s1" d="M75 24h8v1h-8z"/><path id="Shape 226" class="s1" d="M80 27h2v2h-2z"/><path id="Shape 227" class="s1" d="M80 24h2v2h-2z"/><path id="Shape 228" class="s1" d="M76 22h5v6h-5z"/><path id="Shape 229" class="s1" d="M74 29h2v2h-2z"/><path id="Shape 230" class="s1" d="M76 30h5v2h-5z"/><path id="Shape 231" class="s1" d="M75 27h4v4h-4z"/><path id="Shape 232" class="s2" d="M73 4h11v1H73z"/><path id="Shape 233" class="s2" d="M78 1h2v2h-2z"/><path id="Shape 234" class="s2" d="M76 1h5v1h-5z"/><path id="Shape 235" class="s2" d="M73 3h6v1h-6z"/><path id="Shape 236" class="s2" d="M74 2h5v3h-5z"/><path id="Shape 237" class="s2" d="M74 12h1v2h-1z"/><path id="Shape 238" class="s2" d="M73 14h1v9h-1z"/><path id="Shape 239" class="s2" d="M76 27h3v1h-3z"/><path id="Shape 240" class="s2" d="M76 26h1v2h-1z"/><path id="Shape 241" class="s2" d="M75 26h2v1h-2z"/><path id="Shape 242" class="s2" d="M75 21h1v6h-1z"/><path id="Shape 243" class="s2" d="M74 23h2v3h-2z"/><path id="Shape 244" class="s2" d="M74 23h3v2h-3z"/><path id="Shape 245" class="s2" d="M72 19h2v4h-2z"/><path id="Shape 246" class="s2" d="M73 20h2v4h-2z"/><path id="Shape 247" class="s2" d="M73 22h5v2h-5z"/><path id="Shape 248" class="s2" d="M80 22h4v1h-4z"/><path id="Shape 249" class="s2" d="M82 19h1v5h-1z"/><path id="Shape 250" class="s2" d="M82 20h2v3h-2z"/><path id="Shape 251" class="s2" d="M81 21h2v3h-2z"/><path id="Shape 252" class="s2" d="M74 12h4v1h-4z"/><path id="Shape 253" class="s2" d="M77 12h1v2h-1z"/><path id="Shape 254" class="s2" d="M77 13h2v1h-2z"/><path id="Shape 255" class="s2" d="M78 13h1v4h-1z"/><path id="Shape 256" class="s2" d="M78 16h3v1h-3z"/><path id="Shape 257" class="s2" d="M78 14h2v3h-2z"/></g><g id="Folder 5"><path id="Shape 258" class="s0" d="M103 3h2v2h-2z"/><path id="Shape 259" class="s0" d="M104 8h5v2h-5z"/><path id="Shape 260" class="s0" d="M104 7h4v5h-4z"/><path id="Shape 261" class="s0" d="M105 8h2v5h-2z"/><path id="Shape 262" class="s0" d="M101 12h3v2h-3z"/><path id="Shape 263" class="s0" d="M96 7h4v5h-4z"/><path id="Shape 264" class="s0" d="M98 6h8v7h-8z"/><path id="Shape 265" class="s0" d="M105 16h2v3h-2z"/><path id="Shape 266" class="s0" d="M106 17h3v4h-3z"/><path id="Shape 267" class="s1" d="M102 10h6v1h-6z"/><path id="Shape 268" class="s1" d="M104 9h1v3h-1z"/><path id="Shape 269" class="s1" d="M103 10h5v2h-5z"/><path id="Shape 270" class="s1" d="M102 6h1v2h-1z"/><path id="Shape 271" class="s1" d="M102 7h2v1h-2z"/><path id="Shape 272" class="s1" d="M97 6h3v1h-3z"/><path id="Shape 273" class="s1" d="M99 6h1v4h-1z"/><path id="Shape 274" class="s1" d="M99 8h2v2h-2z"/><path id="Shape 275" class="s1" d="M96 7h1v5h-1z"/><path id="Shape 276" class="s1" d="M96 11h2v1h-2z"/><path id="Shape 277" class="s1" d="M98 12h1v1h-1z"/><path id="Shape 278" class="s1" d="M95 9h2v2h-2z"/><path id="Shape 279" class="s1" d="M97 13h4v2h-4z"/><path id="Shape 280" class="s1" d="M96 14h7v2h-7z"/><path id="Shape 281" class="s1" d="M96 15h8v8h-8z"/><path id="Shape 282" class="s1" d="M102 18h3v5h-3z"/><path id="Shape 283" class="s1" d="M103 19h3v3h-3z"/><path id="Shape 284" class="s1" d="M95 16h10v3H95z"/><path id="Shape 285" class="s1" d="M101 23h5v4h-5z"/><path id="Shape 286" class="s1" d="M93 28h1v3h-1z"/><path id="Shape 287" class="s1" d="M93 28h2v2h-2z"/><path id="Shape 288" class="s1" d="M93 24h4v5h-4z"/><path id="Shape 289" class="s1" d="M102 30h6v2h-6z"/><path id="Shape 290" class="s1" d="M102 28h4v4h-4z"/><path id="Shape 291" class="s2" d="M97 5h11v1H97z"/><path id="Shape 292" class="s2" d="M100 2h5v1h-5z"/><path id="Shape 293" class="s2" d="M102 2h2v2h-2z"/><path id="Shape 294" class="s2" d="M97 4h2v2h-2z"/><path id="Shape 295" class="s2" d="M98 3h5v3h-5z"/><path id="Shape 296" class="s2" d="M103 16h2v1h-2z"/><path id="Shape 297" class="s2" d="M102 15h1v1h-1z"/><path id="Shape 298" class="s2" d="M101 14h1v1h-1z"/><path id="Shape 299" class="s2" d="M98 13h3v1h-3z"/><path id="Shape 300" class="s2" d="M97 14h1v14h-1z"/><path id="Shape 301" class="s2" d="M96 17h2v3h-2z"/><path id="Shape 302" class="s2" d="M96 18h3v6h-3z"/><path id="Shape 303" class="s2" d="M105 21h1v2h-1z"/><path id="Shape 304" class="s2" d="M102 26h4v2h-4z"/><path id="Shape 305" class="s2" d="M104 25h2v3h-2z"/><path id="Shape 306" class="s2" d="M105 24h2v2h-2z"/><path id="Shape 307" class="s2" d="M96 20h4v4h-4z"/><path id="Shape 308" class="s2" d="M97 20h3v8h-3z"/><path id="Shape 309" class="s2" d="M100 21h1v6h-1z"/><path id="Shape 310" class="s2" d="M97 21h5v5h-5z"/><path id="Shape 311" class="s2" d="M97 22h7v3h-7z"/><path id="Shape 312" class="s2" d="M96 22h9v2h-9z"/></g><g id="Folder 6"><path id="Shape 313" class="s0" d="M126 1h2v2h-2z"/><path id="Shape 314" class="s0" d="M120 6h12v2h-12z"/><path id="Shape 315" class="s0" d="M125 9h2v3h-2z"/><path id="Shape 316" class="s0" d="M126 5h4v6h-4z"/><path id="Shape 317" class="s0" d="M126 5h5v3h-5z"/><path id="Shape 318" class="s0" d="M120 4h9v7h-9z"/><path id="Shape 319" class="s0" d="M131 12h1v5h-1z"/><path id="Shape 320" class="s0" d="M130 13h3v4h-3z"/><path id="Shape 321" class="s0" d="M117 20h5v3h-5z"/><path id="Shape 322" class="s0" d="M118 20h3v4h-3z"/><path id="Shape 323" class="s2" d="M123 0h4v2h-4z"/><path id="Shape 324" class="s2" d="M123 0h5v1h-5z"/><path id="Shape 325" class="s2" d="M120 3h11v1h-11z"/><path id="Shape 326" class="s2" d="M120 2h6v2h-6z"/><path id="Shape 327" class="s2" d="M121 1h5v3h-5z"/><path id="Shape 328" class="s1" d="M127 7h1v3h-1z"/><path id="Shape 329" class="s1" d="M125 8h6v1h-6z"/><path id="Shape 330" class="s1" d="M126 8h5v2h-5z"/><path id="Shape 331" class="s1" d="M125 4h1v2h-1z"/><path id="Shape 332" class="s1" d="M125 5h2v1h-2z"/><path id="Shape 333" class="s1" d="M120 4h3v1h-3z"/><path id="Shape 334" class="s1" d="M122 4h1v4h-1z"/><path id="Shape 335" class="s1" d="M122 6h2v2h-2z"/><path id="Shape 336" class="s1" d="M120 9h1v2h-1z"/><path id="Shape 337" class="s1" d="M120 10h2v1h-2z"/><path id="Shape 338" class="s1" d="M118 9h3v1h-3z"/><path id="Shape 339" class="s1" d="M119 5h1v5h-1z"/><path id="Shape 340" class="s1" d="M118 7h2v3h-2z"/><path id="Shape 341" class="s1" d="M132 16h1v1h-1z"/><path id="Shape 342" class="s1" d="M130 17h2v1h-2z"/><path id="Shape 344" class="s1" d="M121 12h7v8h-7z"/><path id="Shape 345" class="s1" d="M120 13h9v7h-9z"/><path id="Shape 346" class="s1" d="M119 14h11v6h-11z"/><path id="Shape 347" class="s1" d="M117 18h13v2h-13z"/><path id="Shape 348" class="s1" d="M118 16h13v3h-13z"/><path id="Shape 349" class="s1" d="M118 15h12v5h-12z"/><path id="Shape 350" class="s1" d="M132 21h1v3h-1z"/><path id="Shape 351" class="s1" d="M131 22h2v2h-2z"/><path id="Shape 352" class="s1" d="M128 23h5v5h-5z"/><path id="Shape 353" class="s1" d="M121 24h4v3h-4z"/><path id="Shape 354" class="s1" d="M119 31h3v1h-3z"/><path id="Shape 355" class="s1" d="M119 25h2v7h-2z"/><path id="Shape 356" class="s1" d="M117 28h5v1h-5z"/><path id="Shape 357" class="s1" d="M117 26h4v3h-4z"/><path id="Shape 358" class="s1" d="M118 26h3v5h-3z"/><path id="Shape 359" class="s2" d="M121 12h4v1h-4z"/><path id="Shape 360" class="s2" d="M127 12h1v1h-1z"/><path id="Shape 361" class="s2" d="M124 12h1v2h-1z"/><path id="Shape 362" class="s2" d="M124 13h2v1h-2z"/><path id="Shape 363" class="s2" d="M128 13h1v2h-1z"/><path id="Shape 364" class="s2" d="M129 15h1v5h-1z"/><path id="Shape 365" class="s2" d="M121 19h9v1h-9z"/><path id="Shape 366" class="s2" d="M124 17h1v3h-1z"/><path id="Shape 367" class="s2" d="M123 18h5v2h-5z"/><path id="Shape 368" class="s2" d="M125 13h1v2h-1z"/><path id="Shape 369" class="s2" d="M125 14h2v6h-2z"/><path id="Shape 370" class="s2" d="M121 27h4v1h-4z"/><path id="Shape 371" class="s2" d="M122 26h1v3h-1z"/><path id="Shape 372" class="s2" d="M121 26h2v2h-2z"/><path id="Shape 373" class="s2" d="M120 24h1v2h-1z"/><path id="Shape 374" class="s2" d="M120 25h2v2h-2z"/><path id="Shape 375" class="s2" d="M121 22h7v2h-7z"/><path id="Shape 376" class="s2" d="M122 20h6v5h-6z"/><path id="Shape 377" class="s2" d="M122 20h8v3h-8z"/><path id="Shape 378" class="s2" d="M123 18h5v8h-5z"/><path id="Shape 379" class="s2" d="M125 18h3v9h-3z"/><path id="Shape 380" class="s1" d="M122 11h3v1h-3z"/><path id="Shape 381" class="s0" d="M129 18h1v1h-1z"/><path id="Shape 382" class="s0" d="M126 18h1v1h-1z"/></g><g id="Folder 7"><path id="Shape 383" class="s0" d="M144 6h12v7h-12z"/><path id="Shape 384" class="s0" d="M153 0h3v4h-3z"/><path id="Shape 385" class="s0" d="M152 1h5v3h-5z"/><path id="Shape 386" class="s0" d="M142 17h3v6h-3z"/><path id="Shape 387" class="s0" d="M141 18h5v4h-5z"/><path id="Shape 388" class="s1" d="M152 4h5v1h-5z"/><path id="Shape 389" class="s1" d="M154 1h1v2h-1z"/><path id="Shape 390" class="s1" d="M154 2h2v1h-2z"/><path id="Shape 391" class="s1" d="M153 6h4v1h-4z"/><path id="Shape 392" class="s1" d="M156 5h1v5h-1z"/><path id="Shape 393" class="s1" d="M155 4h2v4h-2z"/><path id="Shape 394" class="s1" d="M149 6h1v2h-1z"/><path id="Shape 395" class="s1" d="M151 9h1v3h-1z"/><path id="Shape 396" class="s1" d="M149 10h7v1h-7z"/><path id="Shape 397" class="s1" d="M154 12h2v1h-2z"/><path id="Shape 398" class="s1" d="M155 10h1v3h-1z"/><path id="Shape 399" class="s1" d="M150 10h4v2h-4z"/><path id="Shape 400" class="s1" d="M144 6h3v1h-3z"/><path id="Shape 401" class="s1" d="M146 6h1v4h-1z"/><path id="Shape 402" class="s1" d="M146 8h2v2h-2z"/><path id="Shape 403" class="s1" d="M142 11h4v1h-4z"/><path id="Shape 404" class="s1" d="M143 7h1v5h-1z"/><path id="Shape 405" class="s1" d="M144 11h2v2h-2z"/><path id="Shape 406" class="s1" d="M142 10h2v2h-2z"/><path id="Shape 407" class="s1" d="M154 12h2v2h-2z"/><path id="Shape 408" class="s1" d="M148 13h7v3h-7z"/><path id="Shape 409" class="s1" d="M151 13h3v6h-3z"/><path id="Shape 410" class="s1" d="M141 15h1v4h-1z"/><path id="Shape 411" class="s1" d="M141 15h2v3h-2z"/><path id="Shape 412" class="s1" d="M142 14h7v3h-7z"/><path id="Shape 413" class="s1" d="M145 14h4v4h-4z"/><path id="Shape 414" class="s1" d="M146 14h2v6h-2z"/><path id="Shape 415" class="s1" d="M144 24h5v3h-5z"/><path id="Shape 416" class="s1" d="M141 25h1v7h-1z"/><path id="Shape 417" class="s1" d="M141 29h2v2h-2z"/><path id="Shape 418" class="s1" d="M141 25h3v5h-3z"/><path id="Shape 419" class="s1" d="M156 21h1v7h-1z"/><path id="Shape 420" class="s1" d="M155 22h2v2h-2z"/><path id="Shape 421" class="s1" d="M153 23h4v5h-4z"/><path id="Shape 422" class="s2" d="M144 5h11v1h-11z"/><path id="Shape 423" class="s2" d="M144 4h8v2h-8z"/><path id="Shape 424" class="s2" d="M145 3h7v3h-7z"/><path id="Shape 425" class="s2" d="M147 2h5v4h-5z"/><path id="Shape 426" class="s2" d="M151 13h1v2h-1z"/><path id="Shape 427" class="s2" d="M152 15h1v2h-1z"/><path id="Shape 428" class="s2" d="M153 17h1v6h-1z"/><path id="Shape 429" class="s2" d="M145 13h4v1h-4z"/><path id="Shape 430" class="s2" d="M148 13h1v2h-1z"/><path id="Shape 431" class="s2" d="M149 14h1v6h-1z"/><path id="Shape 432" class="s2" d="M144 22h9v2h-9z"/><path id="Shape 433" class="s2" d="M147 19h6v5h-6z"/><path id="Shape 434" class="s2" d="M145 21h8v3h-8z"/><path id="Shape 435" class="s2" d="M146 20h7v4h-7z"/><path id="Shape 436" class="s2" d="M148 18h3v6h-3z"/><path id="Shape 437" class="s2" d="M149 18h3v3h-3z"/><path id="Shape 438" class="s2" d="M149 16h2v11h-2z"/><path id="Shape 439" class="s2" d="M151 24h2v4h-2z"/><path id="Shape 440" class="s2" d="M149 19h4v8h-4z"/><path id="Shape 441" class="s2" d="M145 21h8v4h-8z"/><path id="Shape 442" class="s2" d="M147 21h6v5h-6z"/><path id="Shape 443" class="s2" d="M144 25h1v5h-1z"/><path id="Shape 444" class="s2" d="M144 27h5v2h-5z"/><path id="Shape 445" class="s2" d="M145 26h2v4h-2z"/><path id="Shape 446" class="s2" d="M144 27h4v3h-4z"/><path id="Shape 447" class="s0" d="M150 19h1v1h-1z"/><path id="Shape 448" class="s0" d="M153 18h1v1h-1z"/></g></svg>