<svg version="1.2" xmlns="http://www.w3.org/2000/svg" width="208" height="16"><style>.a{fill:#d82800}.b{fill:#887000}.c{fill:#fc9838}</style><path class="a" d="M4 0h6v2H4z"/><path class="a" d="M3 1h10v1H3z"/><path class="b" d="M3 2h5v4H3z"/><path class="b" d="M2 3h2v3H2z"/><path class="c" d="M7 2h4v5H7z"/><path class="c" d="M7 3h6v3H7z"/><path class="c" d="M11 4h3v1h-3zM4 6h8v1H4z"/><path class="c" d="M5 5h2v2H5zM6 3h3v1H6zM4 3h1v2H4z"/><path class="b" d="M9 2h1v2H9zM10 4h1v2h-1z"/><path class="b" d="M9 5h4v1H9zM3 7h7v3H3z"/><path class="b" d="M2 8h2v2H2z"/><path class="b" d="M1 9h3v1H1zM9 8h4v2H9z"/><path class="b" d="M12 9h2v1h-2zM11 9h1v2h-1z"/><path class="a" d="M6 7h1v7H6zM9 8h1v6H9z"/><path class="a" d="M6 9h4v4H6z"/><path class="a" d="M8 10h3v4H8z"/><path class="a" d="M8 12h4v2H8zM5 10h2v4H5z"/><path class="a" d="M4 12h2v2H4z"/><path class="a" d="M3 13h4v1H3z"/><path class="b" d="M4 9h1v2H4z"/><path class="c" d="M1 10h3v3H1z"/><path class="c" d="M3 11h2v1H3zM6 10h1v1H6zM9 10h1v1H9zM12 10h2v3h-2z"/><path class="c" d="M11 11h2v1h-2z"/><path class="b" d="M9 14h4v2H9z"/><path class="b" d="M9 15h5v1H9zM2 14h4v2H2z"/><path class="b" d="M1 15h5v1H1z"/><path class="c" d="M20 2h8v8h-8z"/><path class="c" d="M18 2h11v4H18z"/><path class="c" d="M16 3h15v3H16z"/><path class="b" d="M17 10h13v4H17z"/><path class="b" d="M18 12h11v3H18zM19 4h2v7h-2z"/><path class="b" d="M20 3h1v3h-1zM18 6h5v1h-5z"/><path class="b" d="M21 5h1v2h-1zM22 7h4v1h-4zM27 3h1v8h-1z"/><path class="b" d="M27 4h2v3h-2z"/><path class="b" d="M26 5h2v2h-2z"/><path class="b" d="M25 6h4v1h-4zM22 6h1v2h-1z"/><path class="b" d="M25 6h1v2h-1zM25 3h1v2h-1zM22 3h1v2h-1z"/><path class="a" d="M21 1h5v2h-5z"/><path class="a" d="M20 2h7v1h-7zM23 12h2v3h-2zM26 9h2v2h-2z"/><path class="a" d="M27 9h2v1h-2zM26 10h1v5h-1z"/><path class="a" d="M25 11h2v1h-2zM21 13h6v2h-6zM21 9h1v4h-1z"/><path class="a" d="M21 11h2v1h-2zM20 9h2v2h-2z"/><path class="a" d="M18 9h3v1h-3z"/><path class="c" d="M22 12h1v1h-1zM25 12h1v1h-1zM33 3h13v2H33z"/><path class="c" d="M34 3h12v3H34z"/><path class="c" d="M45 4h2v1h-2zM43 5h2v2h-2zM37 7h3v3h-3zM41 2h1v3h-1zM43 2h1v2h-1z"/><path class="b" d="M42 2h1v1h-1zM34 2h7v1h-7zM35 1h2v1h-2z"/><path class="b" d="M35 1h2v2h-2zM40 6h1v4h-1z"/><path class="b" d="M36 1h1v4h-1zM37 5h1v1h-1zM36 8h1v1h-1zM39 6h3v1h-3zM40 7h6v3h-6z"/><path class="b" d="M41 8h4v3h-4zM36 11h4v4h-4z"/><path class="b" d="M39 12h2v2h-2z"/><path class="b" d="M39 13h3v1h-3zM34 14h5v2h-5z"/><path class="b" d="M33 13h4v2h-4z"/><path class="a" d="M37 13h2v1h-2zM39 14h1v1h-1zM37 0h6v2h-6z"/><path class="a" d="M37 1h8v1h-8zM42 6h1v2h-1z"/><path class="a" d="M41 7h2v1h-2zM41 11h3v2h-3z"/><path class="a" d="M42 11h1v3h-1zM40 10h1v2h-1z"/><path class="a" d="M35 10h6v1h-6z"/><path class="a" d="M35 9h2v3h-2z"/><path class="a" d="M34 7h2v3h-2z"/><path class="a" d="M35 6h2v2h-2z"/><path class="a" d="M36 6h3v1h-3z"/><path class="b" d="M39 3h1v2h-1z"/><path class="b" d="M39 4h2v1h-2z"/><path class="a" d="M35 9h3v2h-3z"/><path class="b" d="M44 5h2v1h-2zM43 4h2v1h-2z"/><path class="c" d="M52 2h7v5h-7zM59 3h2v3h-2zM59 6h1v1h-1z"/><path class="c" d="M60 4h2v1h-2zM54 11h3v2h-3zM56 9h1v1h-1zM59 9h1v1h-1z"/><path class="b" d="M51 2h1v4h-1z"/><path class="b" d="M51 2h4v1h-4zM50 3h2v3h-2z"/><path class="b" d="M51 5h2v1h-2zM53 3h1v2h-1z"/><path class="b" d="M53 4h2v1h-2zM57 2h1v2h-1zM58 4h1v2h-1z"/><path class="b" d="M57 5h4v1h-4zM51 7h3v4h-3z"/><path class="b" d="M50 8h4v3h-4z"/><path class="b" d="M52 10h2v2h-2z"/><path class="b" d="M53 10h2v1h-2zM53 8h2v1h-2zM55 7h3v1h-3z"/><path class="b" d="M57 7h1v2h-1z"/><path class="b" d="M57 8h2v1h-2zM53 11h1v2h-1zM52 14h5v2h-5z"/><path class="b" d="M56 13h3v2h-3z"/><path class="b" d="M58 14h2v1h-2z"/><path class="a" d="M57 9h2v4h-2z"/><path class="a" d="M58 10h2v2h-2zM56 12h2v1h-2zM52 13h4v1h-4zM51 12h2v1h-2zM50 11h2v1h-2zM55 8h1v3h-1z"/><path class="a" d="M55 10h2v1h-2zM54 9h2v1h-2zM55 8h2v1h-2zM54 7h1v1h-1zM52 12h1v2h-1zM51 11h1v2h-1zM51 1h10v1H51z"/><path class="a" d="M52 0h6v2h-6z"/><path class="c" d="M69 3h7v6h-7z"/><path class="c" d="M74 4h4v2h-4z"/><path class="c" d="M76 5h3v1h-3zM75 6h2v5h-2z"/><path class="c" d="M75 9h3v1h-3zM67 9h2v2h-2z"/><path class="c" d="M66 10h3v1h-3z"/><path class="b" d="M67 4h2v3h-2zM68 3h4v1h-4z"/><path class="b" d="M70 3h1v3h-1z"/><path class="b" d="M70 5h2v1h-2zM67 6h3v1h-3zM74 3h1v2h-1zM75 5h1v2h-1z"/><path class="b" d="M74 6h4v1h-4zM68 8h5v1h-5zM74 8h1v3h-1z"/><path class="b" d="M70 9h5v2h-5z"/><path class="b" d="M69 9h6v1h-6z"/><path class="b" d="M69 8h4v2h-4zM68 3h1v4h-1z"/><path class="b" d="M67 4h2v3h-2zM66 11h2v3h-2z"/><path class="b" d="M66 11h3v1h-3zM65 13h2v2h-2zM70 14h4v2h-4z"/><path class="b" d="M71 15h4v1h-4z"/><path class="a" d="M69 11h6v3h-6zM73 8h1v1h-1z"/><path class="a" d="M74 11h2v2h-2zM68 12h2v2h-2zM69 10h1v2h-1zM69 1h6v2h-6z"/><path class="a" d="M68 2h10v1H68z"/><path class="c" d="M91 4h4v1h-4z"/><path class="c" d="M91 3h3v2h-3zM92 5h1v2h-1z"/><path class="c" d="M85 2h7v5h-7zM93 8h3v2h-3zM80 8h3v3h-3zM83 9h1v1h-1z"/><path class="a" d="M85 0h6v2h-6z"/><path class="a" d="M84 1h10v1H84zM87 7h2v6h-2zM89 8h1v2h-1zM91 11h2v3h-2z"/><path class="a" d="M89 9h3v5h-3zM82 12h2v1h-2z"/><path class="a" d="M83 11h2v2h-2z"/><path class="a" d="M84 10h3v4h-3z"/><path class="c" d="M88 9h1v1h-1z"/><path class="b" d="M82 7h2v1h-2z"/><path class="b" d="M83 7h2v2h-2z"/><path class="b" d="M84 7h3v3h-3zM89 7h2v1h-2zM90 8h3v1h-3z"/><path class="b" d="M92 8h1v2h-1zM93 10h2v4h-2zM81 13h2v2h-2zM83 15h3v1h-3z"/><path class="b" d="M83 14h2v2h-2z"/><path class="b" d="M82 13h2v3h-2zM84 2h4v1h-4z"/><path class="a" d="M84 10h8v3h-8z"/><path class="c" d="M91 5h2v2h-2z"/><path class="b" d="M90 7h1v2h-1z"/><path class="b" d="M89 7h2v1h-2zM98 13h2v2h-2zM86 4h2v1h-2z"/><path class="b" d="M86 2h1v3h-1zM83 5h3v1h-3z"/><path class="b" d="M83 3h2v3h-2zM90 2h1v2h-1zM91 4h1v2h-1z"/><path class="b" d="M90 5h4v1h-4zM92 9h2v1h-2z"/><path class="c" d="M109 5h2v1h-2z"/><path class="c" d="M102 3h8v5h-8zM108 0h4v3h-4zM108 11h1v1h-1zM105 11h1v1h-1zM96 10h2v2h-2z"/><path class="c" d="M97 10h3v3h-3z"/><path class="b" d="M97 9h2v1h-2zM99 9h1v2h-1zM103 10h1v2h-1z"/><path class="b" d="M100 9h4v2h-4zM102 8h5v1h-5z"/><path class="b" d="M98 8h6v2h-6zM106 9h2v1h-2z"/><path class="b" d="M105 8h2v2h-2zM108 8h1v1h-1zM110 9h2v5h-2zM108 3h2v1h-2zM111 4h1v2h-1z"/><path class="b" d="M109 3h3v2h-3zM109 6h1v2h-1zM107 5h1v2h-1z"/><path class="b" d="M106 6h5v1h-5zM106 3h1v2h-1zM101 3h3v1h-3z"/><path class="b" d="M103 3h1v3h-1zM101 3h1v2h-1zM101 6h2v1h-2z"/><path class="b" d="M100 4h2v3h-2zM98 13h1v3h-1z"/><path class="b" d="M97 14h2v2h-2zM99 12h3v3h-3z"/><path class="a" d="M101 2h7v1h-7z"/><path class="a" d="M102 1h5v2h-5zM100 11h2v1h-2z"/><path class="a" d="M101 11h2v2h-2zM100 15h2v1h-2z"/><path class="a" d="M101 14h3v2h-3z"/><path class="a" d="M102 12h2v4h-2zM104 9h1v2h-1zM108 9h1v2h-1z"/><path class="a" d="M104 10h3v5h-3zM107 10h2v2h-2z"/><path class="a" d="M107 11h3v3h-3zM101 2h9v1h-9zM107 8h1v1h-1z"/><path class="c" d="M105 11h1v1h-1z"/><path class="a" d="M106 10h2v4h-2z"/><path class="c" d="M108 11h1v1h-1zM122 4h3v1h-3z"/><path class="c" d="M122 4h1v3h-1z"/><path class="c" d="M121 3h3v3h-3z"/><path class="c" d="M115 2h7v5h-7zM124 9h2v2h-2z"/><path class="c" d="M124 10h3v2h-3z"/><path class="b" d="M114 7h3v1h-3zM118 7h3v3h-3z"/><path class="b" d="M119 8h3v3h-3z"/><path class="b" d="M120 9h4v3h-4zM125 12h1v2h-1z"/><path class="b" d="M125 12h2v1h-2zM120 2h1v2h-1zM121 4h1v2h-1z"/><path class="b" d="M120 5h4v1h-4zM116 4h2v1h-2zM114 2h4v1h-4zM113 5h3v1h-3z"/><path class="b" d="M116 2h1v3h-1zM113 3h2v3h-2z"/><path class="a" d="M114 1h10v1h-10z"/><path class="a" d="M115 0h6v2h-6zM117 7h1v3h-1zM113 11h2v3h-2zM120 12h5v2h-5z"/><path class="a" d="M120 12h3v3h-3zM117 11h3v3h-3z"/><path class="a" d="M116 10h3v3h-3z"/><path class="a" d="M115 12h6v4h-6z"/><path class="a" d="M114 8h4v7h-4z"/><path class="c" d="M137 5h4v1h-4z"/><path class="c" d="M137 5h2v3h-2z"/><path class="c" d="M137 4h3v2h-3z"/><path class="c" d="M131 3h7v5h-7zM139 9h3v2h-3z"/><path class="c" d="M139 8h2v3h-2z"/><path class="b" d="M133 8h6v3h-6zM140 12h2v4h-2zM137 5h1v2h-1zM132 3h2v1h-2zM132 5h2v1h-2z"/><path class="b" d="M130 3h4v1h-4z"/><path class="b" d="M132 3h1v3h-1zM136 6h4v1h-4zM136 3h1v2h-1zM129 6h3v1h-3z"/><path class="b" d="M129 4h2v3h-2z"/><path class="a" d="M129 10h3v4h-3z"/><path class="a" d="M130 9h2v6h-2zM131 8h3v1h-3z"/><path class="a" d="M131 8h2v8h-2zM136 13h4v3h-4z"/><path class="a" d="M131 11h6v5h-6z"/><path class="c" d="M135 11h1v1h-1z"/><path class="a" d="M130 2h10v1h-10z"/><path class="a" d="M131 1h6v2h-6z"/><path class="c" d="M170 10h2v3h-2z"/><path class="c" d="M171 11h2v3h-2zM172 5h3v1h-3z"/><path class="c" d="M171 5h2v3h-2z"/><path class="c" d="M171 4h3v3h-3z"/><path class="c" d="M165 3h7v5h-7z"/><path class="b" d="M166 9h5v1h-5z"/><path class="b" d="M169 9h2v3h-2z"/><path class="b" d="M167 8h3v3h-3zM164 8h2v1h-2zM164 14h3v1h-3z"/><path class="b" d="M164 14h2v2h-2zM161 13h2v2h-2z"/><path class="b" d="M161 11h3v3h-3zM171 5h1v2h-1z"/><path class="b" d="M170 6h4v1h-4zM170 3h1v2h-1zM164 3h4v1h-4zM166 5h2v1h-2z"/><path class="b" d="M166 3h1v3h-1zM163 6h3v1h-3z"/><path class="b" d="M163 4h2v3h-2z"/><path class="a" d="M164 2h10v1h-10z"/><path class="a" d="M165 1h6v2h-6zM170 8h1v1h-1zM166 8h1v1h-1zM168 12h2v1h-2zM163 10h4v1h-4z"/><path class="a" d="M164 9h2v3h-2z"/><path class="a" d="M164 11h5v3h-5z"/><path class="c" d="M155 5h4v1h-4z"/><path class="c" d="M155 4h3v3h-3z"/><path class="c" d="M154 5h3v3h-3z"/><path class="c" d="M149 3h7v5h-7zM156 8h3v1h-3z"/><path class="c" d="M156 8h2v2h-2z"/><path class="a" d="M148 2h10v1h-10z"/><path class="a" d="M149 1h6v2h-6zM150 8h1v1h-1zM147 10h4v1h-4z"/><path class="a" d="M148 9h2v5h-2zM150 11h5v1h-5z"/><path class="a" d="M150 11h4v2h-4z"/><path class="a" d="M148 11h4v3h-4zM155 10h1v1h-1z"/><path class="b" d="M154 3h1v2h-1zM155 5h1v2h-1z"/><path class="b" d="M154 6h4v1h-4zM150 5h2v1h-2zM148 3h4v1h-4z"/><path class="b" d="M150 3h1v3h-1zM147 6h3v1h-3z"/><path class="b" d="M147 4h2v3h-2zM148 8h2v1h-2zM150 9h2v1h-2zM154 8h2v2h-2z"/><path class="b" d="M151 8h4v3h-4zM148 14h3v1h-3z"/><path class="b" d="M148 14h2v2h-2zM145 13h2v2h-2z"/><path class="b" d="M145 11h3v3h-3z"/><path class="c" d="M187 5h4v1h-4z"/><path class="c" d="M187 5h2v3h-2z"/><path class="c" d="M187 4h3v2h-3z"/><path class="c" d="M181 3h7v5h-7zM186 10h2v3h-2z"/><path class="c" d="M187 11h2v3h-2z"/><path class="b" d="M180 8h2v1h-2zM182 9h5v1h-5zM185 10h1v2h-1z"/><path class="b" d="M183 8h3v3h-3zM179 12h1v2h-1zM177 12h2v1h-2z"/><path class="b" d="M178 11h2v2h-2zM179 13h3v2h-3z"/><path class="b" d="M178 14h3v2h-3zM187 5h1v2h-1z"/><path class="b" d="M186 6h4v1h-4zM186 3h1v2h-1zM180 3h4v1h-4zM182 5h2v1h-2z"/><path class="b" d="M182 3h1v3h-1zM179 6h3v1h-3z"/><path class="b" d="M179 4h2v3h-2z"/><path class="a" d="M180 2h10v1h-10z"/><path class="a" d="M181 1h6v2h-6zM186 8h1v1h-1z"/><path class="b" d="M185 9h2v3h-2z"/><path class="a" d="M184 12h2v1h-2zM182 8h1v1h-1zM179 10h2v1h-2z"/><path class="a" d="M180 9h2v4h-2z"/><path class="a" d="M180 10h3v3h-3z"/><path class="a" d="M182 11h3v3h-3z"/><path class="c" d="M203 5h4v1h-4zM203 6h2v2h-2z"/><path class="c" d="M203 4h3v3h-3z"/><path class="c" d="M197 3h7v5h-7zM192 11h4v1h-4z"/><path class="c" d="M193 10h2v2h-2z"/><path class="a" d="M196 2h10v1h-10z"/><path class="a" d="M197 1h6v2h-6zM196 11h6v2h-6z"/><path class="a" d="M199 8h2v6h-2z"/><path class="a" d="M198 11h3v3h-3z"/><path class="b" d="M201 8h2v3h-2zM196 8h4v2h-4z"/><path class="b" d="M196 8h2v4h-2z"/><path class="b" d="M195 9h4v2h-4zM193 12h3v1h-3z"/><path class="b" d="M195 12h1v3h-1z"/><path class="b" d="M194 14h3v2h-3z"/><path class="b" d="M195 13h3v2h-3zM202 3h1v2h-1zM203 5h1v2h-1z"/><path class="b" d="M202 6h4v1h-4zM198 5h2v1h-2zM196 3h4v1h-4z"/><path class="b" d="M198 3h1v3h-1zM195 6h3v1h-3z"/><path class="b" d="M195 4h2v3h-2z"/><path class="c" d="M200 11h1v1h-1z"/><path class="b" d="M114 2h1v4h-1zM130 3h1v4h-1zM148 3h1v4h-1zM164 3h1v4h-1zM180 3h1v4h-1zM196 3h1v4h-1z"/><path class="b" d="M114 2h1v4h-1zM44 4h1v2h-1zM39 2h1v3h-1zM99 8h5v3h-5z"/><path class="c" d="M58 3h2v1h-2zM58 6h2v1h-2z"/><path class="a" d="M40 11h4v1h-4z"/></svg>