<svg version="1.2" xmlns="http://www.w3.org/2000/svg" width="64" height="24"><style>.a{fill:#fff}.b{fill:#3cbcfc}</style><path class="a" d="M11 3h8v18h-8z"/><path class="a" d="M14 1h4v3h-4zm-1 1h1v2h-1zm5 0h1v2h-1zm-7 17h3v4h-3zm3 1h1v2h-1zm2-1h3v3h-3z"/><path class="a" d="M18 5h5v17h-5z"/><path class="a" d="M18 20h4v3h-4z"/><path class="a" d="M20 11h8v10h-8zm-1-7h1v2h-1zm2 0h1v2h-1z"/><path class="a" d="M21 8h3v4h-3zm3 2h1v2h-1zm3-1h1v4h-1zm-1 1h1v2h-1zm1 3h4v2h-4zm-1 5h5v2h-5z"/><path class="a" d="M27 14h3v2h-3z"/><path class="a" d="M27 15h2v4h-2z"/><path class="a" d="M28 17h2v1h-2zm-2 1h3v3h-3z"/><path class="a" d="M25 18h2v4h-2zm-4 2h3v2h-3zm9-8h1v2h-1zm-3 0h2v2h-2zM8 8h4v13H8z"/><path class="a" d="M9 18h3v4H9zM9 7h3v2H9z"/><path class="a" d="M10 6h2v2h-2zM5 9h4v11H5z"/><path class="a" d="M3 11h3v6H3z"/><path class="a" d="M4 10h2v2H4zm0 6h2v2H4zm-3-3h3v2H1z"/><path class="a" d="M2 14h2v2H2z"/><path d="M14 0h4v1h-4zm4 1h1v1h-1zm1 1h1v2h-1zm1 2h1v1h-1zm1-1h1v1h-1zm1 1h1v1h-1zm1 1h1v3h-1zm1 3h1v2h-1zm1 2h1v1h-1zm1-1h1v1h-1zm1-1h1v1h-1zm1 1h1v3h-1zm1 3h1v1h-1zm1-1h1v1h-1zm1 1h1v3h-1zm-1 3h1v1h-1zm-1 1h1v1h-1zm1 1h1v1h-1zm1 1h1v1h-1zm-2 2h2v1h-2zm-2 1h2v1h-2zm-2 1h2v1h-2zm-1-1h1v1h-1zm-2 1h2v1h-2zm-4 1h4v1h-4zm-2-1h2v1h-2zm-1-1h1v1h-1zm-1 1h1v1h-1zm-3 1h3v1h-3zm-2-1h2v1H9zm-1-1h1v1H8zm-3-1h3v1H5zm-1-2h1v2H4zm-1-1h1v1H3zm-1-1h1v1H2zm-1-1h1v1H1zm-1-2h1v2H0zm1-1h2v1H1zm2-2h1v1H3zm1-1h1v1H4zm1-1h3v1H5zm5-5h1v3h-1zM9 6h1v1H9zM8 7h1v1H8zm3-5h2v1h-2zm2-1h1v1h-1z"/><path class="b" d="M13 6h2v1h-2zm-1 1h1v1h-1zm5-2h1v1h-1zm1 1h1v1h-1zm0 13h3v2h-3z"/><path class="b" d="M17 19h5v1h-5zm5-1h1v1h-1zm-8 0h4v1h-4z"/><path class="b" d="M14 18h2v2h-2zm2-1h1v2h-1zm1-1h1v1h-1zm-5 3h2v2h-2zm-2 0h2v1h-2zm-3-1h4v1H7z"/><path class="b" d="M9 17h1v2H9zm-3 0h1v1H6zm-1-1h1v1H5z"/><path class="a" d="M27 3h8v18h-8z"/><path class="a" d="M30 1h4v3h-4zm-1 1h1v2h-1zm5 0h1v2h-1zm-7 17h3v4h-3zm3 1h1v2h-1zm2-1h3v3h-3z"/><path class="a" d="M34 5h5v17h-5z"/><path class="a" d="M34 20h4v3h-4z"/><path class="a" d="M36 11h8v10h-8zm-1-7h1v2h-1zm2 0h1v2h-1z"/><path class="a" d="M37 8h3v4h-3zm3 2h1v2h-1zm3-1h1v4h-1zm-1 1h1v2h-1zm1 3h4v2h-4zm-1 5h5v2h-5z"/><path class="a" d="M43 14h3v2h-3z"/><path class="a" d="M43 15h2v4h-2z"/><path class="a" d="M44 17h2v1h-2zm-2 1h3v3h-3z"/><path class="a" d="M41 18h2v4h-2zm-4 2h3v2h-3zm9-8h1v2h-1zm-3 0h2v2h-2zM24 8h4v13h-4z"/><path class="a" d="M25 18h3v4h-3zm0-11h3v2h-3z"/><path class="a" d="M26 6h2v2h-2zm-5 3h4v11h-4z"/><path class="a" d="M19 11h3v6h-3z"/><path class="a" d="M20 10h2v2h-2zm0 6h2v2h-2zm-3-3h3v2h-3z"/><path class="a" d="M18 14h2v2h-2z"/><path d="M30 0h4v1h-4zm4 1h1v1h-1zm1 1h1v2h-1zm1 2h1v1h-1zm1-1h1v1h-1zm1 1h1v1h-1zm1 1h1v3h-1zm1 3h1v2h-1zm1 2h1v1h-1zm1-1h1v1h-1zm1-1h1v1h-1zm1 1h1v3h-1zm1 3h1v1h-1zm1-1h1v1h-1zm1 1h1v3h-1zm-1 3h1v1h-1zm-1 1h1v1h-1zm1 1h1v1h-1zm1 1h1v1h-1zm-2 2h2v1h-2zm-2 1h2v1h-2zm-2 1h2v1h-2zm-1-1h1v1h-1zm-2 1h2v1h-2zm-4 1h4v1h-4zm-2-1h2v1h-2zm-1-1h1v1h-1zm-1 1h1v1h-1zm-3 1h3v1h-3zm-2-1h2v1h-2zm-1-1h1v1h-1zm-3-1h3v1h-3zm-1-2h1v2h-1zm-1-1h1v1h-1zm-1-1h1v1h-1zm-1-1h1v1h-1zm-1-2h1v2h-1zm1-1h2v1h-2zm2-2h1v1h-1zm1-1h1v1h-1zm1-1h3v1h-3zm5-5h1v3h-1zm-1 3h1v1h-1zm-1 1h1v1h-1zm3-5h2v1h-2zm2-1h1v1h-1z"/><path class="b" d="M29 6h2v1h-2zm-1 1h1v1h-1zm5-2h1v1h-1zm1 1h1v1h-1zm0 13h3v2h-3z"/><path class="b" d="M33 19h5v1h-5zm5-1h1v1h-1zm-8 0h4v1h-4z"/><path class="b" d="M30 18h2v2h-2zm2-1h1v2h-1zm1-1h1v1h-1zm-5 3h2v2h-2zm-2 0h2v1h-2zm-3-1h4v1h-4z"/><path class="b" d="M25 17h1v2h-1zm-3 0h1v1h-1zm-1-1h1v1h-1z"/><path class="a" d="M14 8h10v8H14zm4 8h3v3h-3zm2 3h4v2h-4z"/><path class="b" d="M18 19h3v2h-3z"/><path class="b" d="M20 19h2v1h-2zm2-1h1v1h-1z"/><path class="a" d="M20 15h3v3h-3zm3 2h1v3h-1z"/><path class="b" d="M25 17h1v2h-1zm-3 0h1v1h-1zm-1-1h1v1h-1z"/><path class="a" d="M43 3h8v18h-8z"/><path class="a" d="M46 1h4v3h-4zm-1 1h1v2h-1zm5 0h1v2h-1zm-7 17h3v4h-3zm3 1h1v2h-1zm2-1h3v3h-3z"/><path class="a" d="M50 5h5v17h-5z"/><path class="a" d="M50 20h4v3h-4z"/><path class="a" d="M52 11h8v10h-8zm-1-7h1v2h-1zm2 0h1v2h-1z"/><path class="a" d="M53 8h3v4h-3zm3 2h1v2h-1zm3-1h1v4h-1zm-1 1h1v2h-1zm1 3h4v2h-4zm-1 5h5v2h-5z"/><path class="a" d="M59 14h3v2h-3z"/><path class="a" d="M59 15h2v4h-2z"/><path class="a" d="M60 17h2v1h-2zm-2 1h3v3h-3z"/><path class="a" d="M57 18h2v4h-2zm-4 2h3v2h-3zm9-8h1v2h-1zm-3 0h2v2h-2zM40 8h4v13h-4z"/><path class="a" d="M41 18h3v4h-3zm0-11h3v2h-3z"/><path class="a" d="M42 6h2v2h-2zm-5 3h4v11h-4z"/><path class="a" d="M35 11h3v6h-3z"/><path class="a" d="M36 10h2v2h-2zm0 6h2v2h-2zm-3-3h3v2h-3z"/><path class="a" d="M34 14h2v2h-2z"/><path d="M46 0h4v1h-4zm4 1h1v1h-1zm1 1h1v2h-1zm1 2h1v1h-1zm1-1h1v1h-1zm1 1h1v1h-1zm1 1h1v3h-1zm1 3h1v2h-1zm1 2h1v1h-1zm1-1h1v1h-1zm1-1h1v1h-1zm1 1h1v3h-1zm1 3h1v1h-1zm1-1h1v1h-1zm1 1h1v3h-1zm-1 3h1v1h-1zm-1 1h1v1h-1zm1 1h1v1h-1zm1 1h1v1h-1zm-2 2h2v1h-2zm-2 1h2v1h-2zm-2 1h2v1h-2zm-1-1h1v1h-1zm-2 1h2v1h-2zm-4 1h4v1h-4zm-2-1h2v1h-2zm-1-1h1v1h-1zm-1 1h1v1h-1zm-3 1h3v1h-3zm-2-1h2v1h-2zm-1-1h1v1h-1zm-3-1h3v1h-3zm-1-2h1v2h-1zm-1-1h1v1h-1zm-1-1h1v1h-1zm-1-1h1v1h-1zm-1-2h1v2h-1zm1-1h2v1h-2zm2-2h1v1h-1zm1-1h1v1h-1zm1-1h3v1h-3zm5-5h1v3h-1zm-1 3h1v1h-1zm-1 1h1v1h-1zm3-5h2v1h-2zm2-1h1v1h-1z"/><path class="b" d="M45 6h2v1h-2zm-1 1h1v1h-1zm5-2h1v1h-1zm1 1h1v1h-1zm0 13h3v2h-3z"/><path class="b" d="M49 19h5v1h-5zm5-1h1v1h-1zm-8 0h4v1h-4z"/><path class="b" d="M46 18h2v2h-2zm2-1h1v2h-1zm1-1h1v1h-1zm-5 3h2v2h-2zm-2 0h2v1h-2zm-3-1h4v1h-4z"/><path class="b" d="M41 17h1v2h-1zm-3 0h1v1h-1zm-1-1h1v1h-1z"/><path class="a" d="M30 8h10v8H30zm4 8h3v3h-3zm2 3h4v2h-4z"/><path class="b" d="M34 19h3v2h-3z"/><path class="b" d="M36 19h2v1h-2zm2-1h1v1h-1z"/><path class="a" d="M36 15h3v3h-3zm3 2h1v3h-1z"/></svg>