<svg version="1.2" xmlns="http://www.w3.org/2000/svg" width="164" height="23"><style>.s0{fill:#fc9838}.s1{fill:#00a800}.s2{fill:#fff}</style><path id="Layer" class="s0" d="M0 6h2v4H0z"/><path id="Layer" class="s0" d="M1 3h2v6H1z"/><path id="Layer" class="s0" d="M2 2h5v6H2z"/><path id="Layer" class="s0" d="M2 1h4v3H2zM4 10h11v9H4z"/><path id="Layer" class="s0" d="M1 12h14v1H1zM3 11h12v1H3zM2 13h13v1H2zM3 14h4v3H3zM6 22h3v1H6z"/><path id="Layer" class="s0" d="M6 21h2v2H6z"/><path id="Layer" class="s0" d="M5 20h2v2H5z"/><path id="Layer" class="s0" d="M4 19h2v2H4z"/><path id="Layer" class="s0" d="M5 19h10v2H5z"/><path id="Layer" class="s0" d="M12 20h3v2h-3zM11 22h3v1h-3zM9 5h2v5H9zM5 8h2v2H5z"/><path id="Layer" class="s0" d="M14 19h1v3h-1z"/><path id="Layer" class="s0" d="M12 20h3v2h-3zM11 22h3v1h-3zM4 19h1v2H4zM5 20h2v2H5z"/><path id="Layer" class="s0" d="M6 21h2v2H6z"/><path id="Layer" class="s0" d="M6 22h3v1H6z"/><path id="Layer" class="s1" d="M1 6h1v1H1zM3 2h1v3H3zM7 9h1v5H7z"/><path id="Layer" class="s1" d="M6 11h4v1H6zM7 10h2v1H7zM6 12h3v1H6z"/><path id="Layer" class="s1" d="M7 11h1v3H7zM6 14h1v1H6zM5 15h1v1H5zM6 16h3v3H6zM5 17h1v1H5zM9 19h2v1H9z"/><path id="Layer" class="s1" d="M10 18h1v2h-1zM12 16h3v2h-3z"/><path id="Layer" class="s1" d="M11 17h3v1h-3z"/><path id="Layer" class="s1" d="M12 17h1v2h-1zM9 13h3v3H9z"/><path id="Layer" class="s1" d="M10 12h1v5h-1zM12 11h1v2h-1zM13 12h1v2h-1zM14 14h1v1h-1zM13 15h1v1h-1zM12 14h1v1h-1zM8 14h1v1H8zM7 15h1v1H7zM6 14h1v1H6zM9 17h1v1H9z"/><path id="Layer" class="s2" d="M3 0h3v2H3z"/><path id="Layer" class="s2" d="M4 0h2v6H4z"/><path id="Layer" class="s2" d="M3 5h3v1H3z"/><path id="Layer" class="s2" d="M4 5h1v2H4zM8 6h1v4H8zM11 6h1v5h-1z"/><path id="Layer" class="s2" d="M11 8h3v3h-3zM12 6h1v2h-1z"/><path id="Layer" class="s2" d="M11 7h3v1h-3zM10 8h5v1h-5z"/><path id="Layer" class="s2" d="M10 7h4v1h-4zM9 9h6v1H9zM9 10h7v1H9zM10 11h2v1h-2zM13 11h3v1h-3zM14 12h2v1h-2zM9 5h3v1H9z"/><path id="Layer" class="s2" d="M9 5h1v2H9zM10 7h2v2h-2zM6 9h1v2H6zM5 11h1v4H5zM4 14h1v5H4zM5 18h1v2H5zM6 19h2v1H6z"/><path id="Layer" class="s2" d="M7 19h1v2H7z"/><path id="Layer" class="s2" d="M7 20h5v1H7z"/><path id="Layer" class="s2" d="M11 19h1v2h-1z"/><path id="Layer" class="s2" d="M11 19h3v1h-3z"/><path id="Layer" class="s2" d="M13 18h1v2h-1z"/><path id="Layer" class="s2" d="M13 18h3v1h-3zM11 5h1v5h-1z"/><path id="Layer" class="s2" d="M11 6h2v4h-2z"/><path id="Layer" class="s2" d="M12 7h2v2h-2z"/><path id="Layer" class="s2" d="M12 8h3v2h-3zM15 10h1v3h-1z"/><path id="Layer" class="s0" d="M31 12h1v2h-1z"/><path id="Layer" class="s0" d="M30 7h2v6h-2z"/><path id="Layer" class="s0" d="M30 7h3v4h-3z"/><path id="Layer" class="s0" d="M31 3h5v7h-5z"/><path id="Layer" class="s0" d="M33 6h2v2h-2z"/><path id="Layer" class="s0" d="M34 3h3v6h-3z"/><path id="Layer" class="s0" d="M35 2h1v2h-1zM34 9h2v3h-2zM33 12h2v3h-2zM32 15h2v1h-2z"/><path id="Layer" class="s0" d="M33 15h1v3h-1zM31 22h5v1h-5zM32 21h5v1h-5zM33 20h2v1h-2zM42 21h3v2h-3z"/><path id="Layer" class="s0" d="M42 22h4v1h-4zM34 12h11v8H34z"/><path id="Layer" class="s0" d="M35 19h9v3h-9zM41 3h2v3h-2zM39 6h2v6h-2z"/><path id="Layer" class="s0" d="M40 5h2v2h-2z"/><path id="Layer" class="s1" d="M32 3h1v3h-1zM31 8h1v1h-1zM37 10h2v3h-2z"/><path id="Layer" class="s1" d="M36 12h2v2h-2zM37 14h6v1h-6z"/><path id="Layer" class="s1" d="M39 13h3v4h-3z"/><path id="Layer" class="s1" d="M40 12h1v6h-1zM38 14h2v2h-2zM36 17h3v3h-3z"/><path id="Layer" class="s1" d="M37 16h1v4h-1z"/><path id="Layer" class="s1" d="M35 18h5v1h-5zM39 20h2v1h-2z"/><path id="Layer" class="s1" d="M40 19h1v2h-1zM42 17h1v3h-1z"/><path id="Layer" class="s1" d="M41 18h4v1h-4zM42 17h3v1h-3z"/><path id="Layer" class="s1" d="M43 18h2v1h-2z"/><path id="Layer" class="s1" d="M43 16h1v3h-1zM44 14h1v2h-1zM43 13h1v1h-1zM42 11h3v2h-3zM42 14h1v2h-1zM36 15h1v1h-1zM35 16h1v1h-1zM32 3h1v3h-1zM31 8h1v1h-1z"/><path id="Layer" class="s2" d="M32 1h3v2h-3z"/><path id="Layer" class="s2" d="M33 2h2v5h-2z"/><path id="Layer" class="s2" d="M32 6h3v1h-3z"/><path id="Layer" class="s2" d="M33 1h1v7h-1zM35 12h1v4h-1z"/><path id="Layer" class="s2" d="M34 15h2v1h-2z"/><path id="Layer" class="s2" d="M34 15h1v5h-1z"/><path id="Layer" class="s2" d="M34 19h2v1h-2z"/><path id="Layer" class="s2" d="M35 19h1v2h-1z"/><path id="Layer" class="s2" d="M35 20h3v1h-3z"/><path id="Layer" class="s2" d="M37 20h1v2h-1z"/><path id="Layer" class="s2" d="M37 21h5v1h-5z"/><path id="Layer" class="s2" d="M41 20h1v2h-1z"/><path id="Layer" class="s2" d="M41 20h3v1h-3z"/><path id="Layer" class="s2" d="M43 19h1v2h-1z"/><path id="Layer" class="s2" d="M43 19h3v1h-3zM39 10h1v2h-1z"/><path id="Layer" class="s2" d="M39 11h3v1h-3z"/><path id="Layer" class="s2" d="M41 9h1v3h-1z"/><path id="Layer" class="s2" d="M40 7h3v3h-3zM41 5h4v2h-4zM42 1h2v4h-2z"/><path id="Layer" class="s2" d="M43 1h3v2h-3z"/><path id="Layer" class="s2" d="M44 1h1v3h-1zM41 2h2v2h-2zM40 3h1v2h-1zM39 4h1v2h-1z"/><path id="Layer" class="s2" d="M39 4h1v3h-1zM38 6h1v4h-1zM42 10h2v1h-2zM43 9h2v1h-2z"/><path id="Layer" class="s2" d="M44 8h1v2h-1zM43 7h1v1h-1z"/><path id="0" d="M43 8h1v1h-1z" style="fill:#000"/><path id="Layer" class="s0" d="M60 6h2v4h-2z"/><path id="Layer" class="s0" d="M61 3h2v6h-2z"/><path id="Layer" class="s0" d="M62 2h4v6h-4z"/><path id="Layer" class="s0" d="M62 1h3v7h-3z"/><path id="Layer" class="s0" d="M64 1h2v7h-2z"/><path id="Layer" class="s0" d="M65 3h2v6h-2z"/><path id="Layer" class="s0" d="M64 2h3v2h-3zM65 6h2v5h-2zM64 10h1v4h-1z"/><path id="Layer" class="s0" d="M63 11h2v3h-2z"/><path id="Layer" class="s0" d="M62 12h2v2h-2z"/><path id="Layer" class="s0" d="M61 12h2v1h-2zM63 13h1v4h-1zM66 13h1v1h-1zM65 16h1v1h-1zM66 15h1v1h-1zM67 14h1v1h-1zM68 13h1v1h-1zM69 12h1v1h-1zM70 11h1v1h-1zM71 10h1v1h-1zM72 9h1v1h-1zM68 9h1v1h-1zM69 10h1v1h-1z"/><path id="Layer" class="s0" d="M70 11h1v1h-1zM71 12h1v1h-1zM72 13h1v1h-1zM74 13h1v1h-1zM73 14h1v1h-1zM72 15h1v1h-1zM74 15h1v1h-1zM71 16h1v1h-1zM69 16h1v1h-1zM70 17h1v1h-1zM69 18h1v1h-1zM71 18h1v1h-1zM68 19h1v1h-1zM64 19h1v2h-1z"/><path id="Layer" class="s0" d="M64 20h3v1h-3z"/><path id="Layer" class="s0" d="M65 20h2v2h-2z"/><path id="Layer" class="s0" d="M65 21h3v1h-3z"/><path id="Layer" class="s0" d="M66 21h2v2h-2z"/><path id="Layer" class="s0" d="M66 22h3v1h-3zM71 22h2v1h-2z"/><path id="Layer" class="s0" d="M72 20h2v3h-2z"/><path id="Layer" class="s0" d="M72 20h3v2h-3z"/><path id="Layer" class="s0" d="M74 19h1v3h-1z"/><path id="Layer" class="s1" d="M63 2h1v3h-1zM61 6h1v1h-1zM68 8h5v1h-5z"/><path id="Layer" class="s1" d="M69 8h3v2h-3z"/><path id="Layer" class="s1" d="M70 8h1v3h-1zM67 9h1v4h-1z"/><path id="Layer" class="s1" d="M67 11h1v3h-1z"/><path id="Layer" class="s1" d="M66 11h3v2h-3z"/><path id="Layer" class="s1" d="M66 11h4v1h-4zM73 9h1v2h-1z"/><path id="Layer" class="s1" d="M72 10h2v1h-2zM74 11h1v2h-1zM74 14h1v1h-1zM72 16h3v2h-3z"/><path id="Layer" class="s1" d="M73 16h2v1h-2z"/><path id="Layer" class="s1" d="M73 15h1v3h-1zM72 17h1v2h-1zM70 18h1v2h-1z"/><path id="Layer" class="s1" d="M69 19h2v1h-2zM66 16h3v3h-3z"/><path id="Layer" class="s1" d="M65 17h5v1h-5z"/><path id="Layer" class="s1" d="M67 15h1v4h-1zM70 12h1v5h-1z"/><path id="Layer" class="s1" d="M69 14h4v1h-4z"/><path id="Layer" class="s1" d="M68 14h5v1h-5z"/><path id="Layer" class="s1" d="M69 13h3v3h-3zM66 11h3v2h-3z"/><path id="Layer" class="s1" d="M67 9h1v5h-1z"/><path id="Layer" class="s1" d="M67 10h2v3h-2zM66 14h1v1h-1zM65 15h1v1h-1zM68 15h1v1h-1zM71 17h1v1h-1zM73 13h1v1h-1zM72 12h1v1h-1zM71 11h1v1h-1z"/><path id="Layer" class="s2" d="M65 11h1v4h-1zM64 14h1v5h-1z"/><path id="Layer" class="s2" d="M64 18h2v1h-2z"/><path id="Layer" class="s2" d="M65 18h1v2h-1z"/><path id="Layer" class="s2" d="M65 19h3v1h-3z"/><path id="Layer" class="s2" d="M67 19h1v2h-1z"/><path id="Layer" class="s2" d="M67 20h5v1h-5zM71 19h1v1h-1z"/><path id="Layer" class="s2" d="M71 19h3v1h-3z"/><path id="Layer" class="s2" d="M73 18h1v2h-1z"/><path id="Layer" class="s2" d="M73 18h3v1h-3zM72 11h2v1h-2z"/><path id="Layer" class="s2" d="M73 11h1v2h-1zM63 0h3v1h-3zM63 1h3v1h-3z"/><path id="Layer" class="s2" d="M64 1h2v5h-2z"/><path id="Layer" class="s2" d="M63 5h3v1h-3z"/><path id="Layer" class="s2" d="M64 4h1v3h-1zM66 9h1v2h-1z"/><g id="Folder 1"><path id="Layer" class="s0" d="M91 7h1v7h-1z"/><path id="Layer" class="s0" d="M90 7h2v6h-2z"/><path id="Layer" class="s0" d="M91 7h2v4h-2z"/><path id="Layer" class="s0" d="M91 3h5v7h-5z"/><path id="Layer" class="s0" d="M95 2h1v8h-1z"/><path id="Layer" class="s0" d="M94 3h3v6h-3zM94 9h2v4h-2z"/><path id="Layer" class="s0" d="M93 12h2v3h-2zM92 15h2v1h-2z"/><path id="Layer" class="s0" d="M93 14h2v4h-2zM92 22h4v1h-4z"/><path id="Layer" class="s0" d="M91 22h5v1h-5z"/><path id="Layer" class="s0" d="M92 21h4v2h-4z"/><path id="Layer" class="s0" d="M94 21h3v1h-3zM93 20h2v1h-2zM102 21h3v2h-3z"/><path id="Layer" class="s0" d="M103 22h3v1h-3zM95 12h8v9h-8z"/><path id="Layer" class="s0" d="M101 14h4v4h-4zM100 9h3v4h-3zM98 10h2v2h-2zM98 9h2v1h-2zM97 10h1v2h-1z"/><path id="Layer" class="s0" d="M103 10h1v10h-1zM104 11h1v7h-1zM104 18h1v2h-1zM100 18h1v1h-1z"/><path id="Layer" class="s1" d="M92 3h1v3h-1zM91 8h1v1h-1zM96 12h3v2h-3z"/><path id="Layer" class="s1" d="M97 10h1v5h-1z"/><path id="Layer" class="s1" d="M96 12h4v1h-4z"/><path id="Layer" class="s1" d="M98 11h1v3h-1zM98 9h5v1h-5z"/><path id="Layer" class="s1" d="M99 9h3v2h-3z"/><path id="Layer" class="s1" d="M100 9h1v3h-1zM102 11h3v1h-3z"/><path id="Layer" class="s1" d="M103 10h1v2h-1zM100 13h1v5h-1z"/><path id="Layer" class="s1" d="M98 15h5v1h-5z"/><path id="Layer" class="s1" d="M99 14h3v3h-3z"/><path id="Layer" class="s1" d="M98 15h5v1h-5z"/><path id="Layer" class="s1" d="M99 14h3v3h-3zM102 17h3v2h-3z"/><path id="Layer" class="s1" d="M103 16h1v3h-1zM99 20h2v1h-2z"/><path id="Layer" class="s1" d="M100 19h1v2h-1zM96 18h3v2h-3z"/><path id="Layer" class="s1" d="M96 17h3v3h-3z"/><path id="Layer" class="s1" d="M95 18h5v1h-5z"/><path id="Layer" class="s1" d="M97 16h1v4h-1zM102 19h1v1h-1zM101 18h2v1h-2zM104 11h1v3h-1zM104 15h1v1h-1zM96 15h1v1h-1zM95 16h1v1h-1zM95 18h2v1h-2zM101 12h1v1h-1zM102 13h1v1h-1zM103 14h1v1h-1z"/><path id="Layer" class="s1" d="M104 15h1v1h-1z"/><path id="Layer" class="s2" d="M102 12h2v1h-2z"/><path id="Layer" class="s2" d="M103 12h1v2h-1zM103 19h3v1h-3z"/><path id="Layer" class="s2" d="M103 19h1v2h-1z"/><path id="Layer" class="s2" d="M101 20h3v1h-3z"/><path id="Layer" class="s2" d="M101 20h1v2h-1z"/><path id="Layer" class="s2" d="M97 21h5v1h-5z"/><path id="Layer" class="s2" d="M97 20h1v2h-1z"/><path id="Layer" class="s2" d="M95 20h3v1h-3z"/><path id="Layer" class="s2" d="M95 19h1v2h-1z"/><path id="Layer" class="s2" d="M94 19h2v1h-2z"/><path id="Layer" class="s2" d="M94 15h1v5h-1z"/><path id="Layer" class="s2" d="M94 15h2v1h-2z"/><path id="Layer" class="s2" d="M95 12h1v4h-1zM92 1h3v2h-3z"/><path id="Layer" class="s2" d="M93 1h2v6h-2z"/><path id="Layer" class="s2" d="M92 6h3v1h-3z"/><path id="Layer" class="s2" d="M93 5h1v3h-1z"/><path id="Layer" class="s0" d="M120 19h1v4h-1z"/><path id="Layer" class="s0" d="M120 19h2v3h-2z"/><path id="Layer" class="s0" d="M121 18h1v3h-1z"/><path id="Layer" class="s0" d="M121 19h2v2h-2zM131 19h3v2h-3z"/><path id="Layer" class="s0" d="M132 18h1v4h-1z"/><path id="Layer" class="s0" d="M132 19h2v3h-2z"/><path id="Layer" class="s0" d="M133 19h1v4h-1zM125 9h4v1h-4zM129 8h1v1h-1zM124 8h1v1h-1zM124 10h1v1h-1zM123 11h1v1h-1zM122 12h1v1h-1zM121 13h1v1h-1zM120 14h1v1h-1zM122 13h2v1h-2zM124 14h1v1h-1zM124 16h1v1h-1zM123 16h1v2h-1zM125 15h4v1h-4zM129 16h1v1h-1zM130 17h1v1h-1zM132 13h1v1h-1zM131 12h1v1h-1zM130 11h1v1h-1zM129 10h1v1h-1zM130 13h1v1h-1zM129 14h1v1h-1zM133 14h1v1h-1z"/><path id="Layer" class="s0" d="M130 17h1v1h-1zM129 16h1v1h-1z"/><path id="Layer" class="s0" d="M130 17h1v1h-1z"/><path id="Layer" class="s1" d="M125 16h4v4h-4z"/><path id="Layer" class="s1" d="M124 17h6v2h-6zM122 13h1v4h-1z"/><path id="Layer" class="s1" d="M120 15h5v1h-5z"/><path id="Layer" class="s1" d="M121 14h3v2h-3z"/><path id="Layer" class="s1" d="M123 14h1v3h-1zM125 10h4v5h-4z"/><path id="Layer" class="s1" d="M124 11h6v3h-6z"/><path id="Layer" class="s1" d="M123 12h8v1h-8zM123 9h2v1h-2z"/><path id="Layer" class="s1" d="M123 9h1v2h-1z"/><path id="Layer" class="s1" d="M122 10h2v1h-2z"/><path id="Layer" class="s1" d="M122 10h1v2h-1zM122 13h1v1h-1zM121 12h1v1h-1zM125 8h4v1h-4zM129 9h2v1h-2z"/><path id="Layer" class="s1" d="M130 9h1v2h-1z"/><path id="Layer" class="s1" d="M130 10h2v1h-2z"/><path id="Layer" class="s1" d="M131 10h1v2h-1zM132 12h1v1h-1zM129 15h5v1h-5zM130 14h3v1h-3z"/><path id="Layer" class="s1" d="M131 13h1v2h-1zM130 16h2v1h-2zM125 16h4v4h-4zM125 8h4v1h-4z"/><path id="Layer" class="s2" d="M119 16h3v2h-3zM122 17h1v2h-1z"/><path id="Layer" class="s2" d="M122 18h2v1h-2z"/><path id="Layer" class="s2" d="M123 18h1v2h-1z"/><path id="Layer" class="s2" d="M123 19h2v1h-2z"/><path id="Layer" class="s2" d="M124 19h1v2h-1z"/><path id="Layer" class="s2" d="M124 20h1v1h-1zM125 20h4v2h-4zM129 19h1v2h-1z"/><path id="Layer" class="s2" d="M129 19h2v1h-2z"/><path id="Layer" class="s2" d="M130 18h1v2h-1z"/><path id="Layer" class="s2" d="M130 18h2v1h-2z"/><path id="Layer" class="s2" d="M131 17h1v2h-1zM132 16h3v2h-3z"/></g><path id="Layer" class="s0" d="M154 10h4v1h-4zM158 9h1v1h-1zM153 9h1v1h-1zM153 11h1v1h-1zM152 12h1v1h-1zM151 13h1v1h-1zM150 14h1v1h-1zM149 15h1v1h-1zM151 14h2v1h-2zM153 15h1v1h-1zM153 17h1v1h-1zM154 16h4v1h-4zM158 17h1v1h-1zM161 14h1v1h-1zM160 13h1v1h-1zM159 12h1v1h-1zM158 11h1v1h-1zM159 14h1v1h-1zM158 15h1v1h-1zM162 15h1v1h-1z"/><path id="Layer" class="s0" d="M158 17h1v1h-1zM152 18h1v1h-1zM159 18h1v1h-1z"/><path id="Layer" class="s1" d="M154 17h4v4h-4z"/><path id="Layer" class="s1" d="M153 18h6v2h-6zM151 14h1v4h-1z"/><path id="Layer" class="s1" d="M149 16h5v1h-5z"/><path id="Layer" class="s1" d="M150 15h3v2h-3z"/><path id="Layer" class="s1" d="M152 15h1v3h-1zM154 11h4v5h-4z"/><path id="Layer" class="s1" d="M153 12h6v3h-6z"/><path id="Layer" class="s1" d="M152 13h8v1h-8zM152 10h2v1h-2z"/><path id="Layer" class="s1" d="M152 10h1v2h-1z"/><path id="Layer" class="s1" d="M151 11h2v1h-2z"/><path id="Layer" class="s1" d="M151 11h1v2h-1zM151 14h1v1h-1zM150 13h1v1h-1zM154 9h4v1h-4zM158 10h2v1h-2z"/><path id="Layer" class="s1" d="M159 10h1v2h-1z"/><path id="Layer" class="s1" d="M159 11h2v1h-2z"/><path id="Layer" class="s1" d="M160 11h1v2h-1zM161 13h1v1h-1zM158 16h5v1h-5zM159 15h3v1h-3z"/><path id="Layer" class="s1" d="M160 14h1v2h-1zM159 17h2v1h-2zM154 17h4v4h-4zM154 9h4v1h-4z"/><path id="Layer" class="s2" d="M151 18h1v2h-1z"/><path id="Layer" class="s2" d="M151 19h2v1h-2z"/><path id="Layer" class="s2" d="M152 19h1v2h-1z"/><path id="Layer" class="s2" d="M152 20h2v1h-2z"/><path id="Layer" class="s2" d="M153 20h1v2h-1z"/><path id="Layer" class="s2" d="M153 21h1v1h-1zM154 21h4v2h-4zM158 20h1v2h-1z"/><path id="Layer" class="s2" d="M158 20h2v1h-2z"/><path id="Layer" class="s2" d="M159 19h1v2h-1z"/><path id="Layer" class="s2" d="M159 19h2v1h-2z"/><path id="Layer" class="s2" d="M160 18h1v2h-1zM161 17h3v2h-3z"/><path id="Layer copy" class="s2" d="M148 17h3v2h-3z"/></svg>