<svg version="1.2" xmlns="http://www.w3.org/2000/svg" width="57" height="16"><style>.s0{fill:#c84c0c}.s1{fill:#000}.s2{fill:#f4d4b4}</style><path id="Layer" class="s0" d="M0 7h1v3H0zm1-2h1v6H1zm1-1h1v7H2zm1-1h1v8H3zm1-1h1v9H4zm1-1h1v9H5zm1-1h4v10H6zm4 1h1v9h-1zm1 1h1v9h-1zm1 1h1v8h-1zm1 1h1v7h-1zm1 1h1v6h-1zm1 2h1v3h-1z"/><path id="Layer" class="s1" d="M3 4h2v1H3zm2 1h1v3H5z"/><path id="Layer" class="s1" d="M5 6h6v1H5z"/><path id="Layer" class="s1" d="M10 5h1v3h-1zm1-1h2v1h-2zm0 9h2v2h-2z"/><path id="Layer" class="s1" d="M10 14h2v2h-2z"/><path id="Layer" class="s1" d="M9 15h2v1H9zm-7-1h5v2H2z"/><path id="Layer" class="s1" d="M1 13h5v2H1zm1-1h2v1H2z"/><path id="Layer" class="s2" d="M4 5h1v4H4zm2 2h1v2H6z"/><path id="Layer" class="s2" d="M4 8h3v1H4zm5 0h3v1H9zm2-3h1v3h-1zM9 7h1v1H9zm-4 3h6v4H5z"/><path id="Layer" class="s2" d="M4 11h8v1H4zm0 1h8v1H4zm3 2h3v1H7z"/><path id="Layer" class="s0" d="M21 7h1v3h-1zm1-2h2v6h-2z"/><path id="Layer" class="s0" d="M23 4h1v7h-1zm1-1h2v8h-2z"/><path id="Layer" class="s0" d="M25 2h1v9h-1zm1-1h1v9h-1zm1-1h4v10h-4zm4 1h1v9h-1zm1 1h1v9h-1zm1 1h1v8h-1zm1 1h1v7h-1zm1 1h1v6h-1zm1 2h1v3h-1z"/><path id="Layer" class="s2" d="M25 5h1v4h-1zm2 2h1v2h-1z"/><path id="Layer" class="s2" d="M25 8h3v1h-3zm5 0h3v1h-3z"/><path id="Layer" class="s2" d="M32 5h1v4h-1zm-2 2h1v2h-1zm-4 3h4v5h-4zm4 0h3v4h-3z"/><path id="Shape 1" class="s0" d="M32 9h2v2h-2z"/><path id="Layer" class="s2" d="M25 11h2v2h-2z"/><path id="Layer" class="s1" d="M24 4h2v1h-2zm2 1h1v3h-1z"/><path id="Layer" class="s1" d="M26 6h6v1h-6z"/><path id="Layer" class="s1" d="M31 5h1v3h-1zm1-1h2v1h-2zm-8 9h2v2h-2z"/><path id="Layer" class="s1" d="M25 14h2v2h-2z"/><path id="Layer" class="s1" d="M25 15h3v1h-3zm5-1h5v2h-5z"/><path id="Layer" class="s1" d="M31 13h5v2h-5zm2-1h2v1h-2z"/><path id="Layer" class="s0" d="M41 11h17v2H41zm1-1h14v1H42zm2-1h10v1H44zm3-1h4v1h-4z"/><path id="Layer" class="s1" d="M44 10h3v1h-3zm3 1h4v1h-4zm4-1h3v1h-3zm0 5h5v1h-5zm-9 0h5v1h-5z"/><path id="Layer" class="s2" d="M44 13h10v1H44zm1 1h8v1h-8zm-2-3h4v1h-4zm8 0h4v1h-4z"/></svg>