<svg version="1.2" xmlns="http://www.w3.org/2000/svg" viewBox="0 0 16 16" width="16" height="16"><style>.a{fill:#c84c0c}.b{fill:#fcbcb0}</style><path class="a" d="m0 0h16v16h-16z"/><path class="b" d="m0 1h1v14h-1z"/><path class="b" d="m1 0h8v1h-8z"/><path class="b" d="m11 0h4v1h-4z"/><path class="b" d="m10 1h1v4h-1z"/><path class="b" d="m10 6h1v4h-1z"/><path class="b" d="m11 6h4v1h-4z"/><path class="b" d="m9 10h1v2h-1z"/><path class="b" d="m8 12h1v4h-1z"/><path  d="m1 15h6v1h-6z"/><path  d="m7 12h1v3h-1z"/><path  d="m8 10h1v2h-1z"/><path  d="m9 0h1v10h-1z"/><path  d="m11 5h4v1h-4z"/><path  d="m11 4h1v1h-1z"/><path  d="m9 15h6v1h-6z"/><path  d="m14 14h2v1h-2z"/><path  d="m15 6h1v8h-1z"/><path  d="m15 0h1v5h-1z"/><path  d="m4 12h3v1h-3z"/><path  d="m2 11h2v1h-2z"/><path  d="m0 10h2v1h-2z"/><path class="b" d="m0 11h2v1h-2z"/><path class="b" d="m2 12h2v1h-2z"/><path class="b" d="m4 13h3v1h-3z"/></svg>