<svg version="1.2" xmlns="http://www.w3.org/2000/svg" width="16" height="16"><style>.a{fill:#fff}.b{fill:#00a800}</style><path class="a" d="M7 0h9v8H7z"/><path class="a" d="M9 0h7v10H9z"/><path class="a" d="M8 0h8v9H8z"/><path class="a" d="M10 0h6v11h-6z"/><path class="a" d="M11 0h5v12h-5z"/><path class="a" d="M12 0h4v13h-4z"/><path class="a" d="M13 0h3v14h-3z"/><path class="a" d="M14 0h2v15h-2z"/><path class="a" d="M15 0h1v16h-1z"/><path class="a" d="M6 0h10v7H6z"/><path class="a" d="M5 0h11v6H5z"/><path class="a" d="M4 0h12v5H4z"/><path class="a" d="M3 0h13v4H3z"/><path class="a" d="M2 0h14v3H2z"/><path class="a" d="M1 0h15v2H1z"/><path class="a" d="M0 0h16v1H0z"/><path class="b" d="M9 1h5v1H9zM8 2h2v1H8z"/><path class="b" d="M8 2h1v5H8z"/><path class="b" d="M8 5h3v2H8z"/><path class="b" d="M10 6h3v2h-3z"/><path class="b" d="M12 5h3v2h-3zM14 2h1v3h-1z"/><path class="b" d="M13 2h2v1h-2zM11 1h1v4h-1z"/><path class="b" d="M10 4h3v1h-3z"/></svg>