<svg version="1.2" xmlns="http://www.w3.org/2000/svg" width="32" height="16"><style>.b{fill:#00a800}</style><path d="M0 0h32v15H0z" style="fill:#80d010"/><path d="M0 0h32v1H0zM0 1h1v14H0z"/><path d="M0 14h32v1H0zM31 0h1v14h-1zM2 15h28v1H2z"/><path class="b" d="M1 2h5v1H1z"/><path class="b" d="M4 2h2v12H4zM12 2h1v12h-1zM13 2h3v1h-3z"/><path class="b" d="M15 2h10v12H15z"/><path class="b" d="M21 2h10v1H21zM26 3h1v1h-1zM28 3h1v1h-1zM27 4h1v1h-1zM25 4h1v1h-1zM26 5h1v1h-1zM28 5h1v1h-1zM27 6h1v1h-1zM25 6h1v1h-1zM26 7h1v1h-1zM28 7h1v1h-1zM27 8h1v1h-1zM25 8h1v1h-1zM26 9h1v1h-1zM28 9h1v1h-1zM27 10h1v1h-1zM25 10h1v1h-1zM26 11h1v1h-1zM28 11h1v1h-1zM27 12h1v1h-1zM25 12h1v1h-1zM26 13h1v1h-1zM28 13h1v1h-1z"/></svg>